/* XPM */
static char *_9236f4fdd394ce68a710cd73d7e37caFYeAoObx53FRJCTC[] = {
/* columns rows colors chars-per-pixel */
"64 64 127 2 ",
"   c None",
".  c #1C1D16",
"X  c #1F1F19",
"o  c #1E2016",
"O  c #1F201A",
"+  c #212317",
"@  c #22231C",
"#  c #26281E",
"$  c #28291F",
"%  c #262620",
"&  c #272821",
"*  c #2B2C24",
"=  c #2E2F28",
"-  c #2F3029",
";  c #313227",
":  c #33342B",
">  c #37382E",
",  c #393A2F",
"<  c #363731",
"1  c #373832",
"2  c #3B3C33",
"3  c #3F3F38",
"4  c #3F4034",
"5  c #3F4039",
"6  c #414236",
"7  c #44453B",
"8  c #47493D",
"9  c #494B3E",
"0  c #474840",
"q  c #4D4E43",
"w  c #4F4F49",
"e  c #4F5044",
"r  c #4F5048",
"t  c #515345",
"y  c #54554B",
"u  c #57584C",
"i  c #5A5B4D",
"p  c #5B5C53",
"a  c #5F604F",
"s  c #5F6053",
"d  c #5F6058",
"f  c #616355",
"g  c #65675A",
"h  c #65665B",
"j  c #65675B",
"k  c #66675A",
"l  c #646559",
"z  c #65665E",
"x  c #64655A",
"c  c #676958",
"v  c #666859",
"b  c #66685B",
"n  c #67695B",
"m  c #66685C",
"M  c #67685B",
"N  c #68695A",
"B  c #686A5A",
"V  c #696B5A",
"C  c #696B5B",
"Z  c #69695F",
"A  c #696B5E",
"S  c #696B5F",
"D  c #6A6B5E",
"F  c #6A6B5F",
"G  c #6A6C5C",
"H  c #6B6D5C",
"J  c #6B6C5E",
"K  c #6A6C5F",
"L  c #6B6D5F",
"P  c #6A6C5D",
"I  c #666660",
"U  c #696961",
"Y  c #696A60",
"T  c #696A62",
"R  c #6A6B62",
"E  c #6A6C60",
"W  c #6B6C60",
"Q  c #6B6C61",
"!  c #6C6D61",
"~  c #6C6E60",
"^  c #6C6E61",
"/  c #6C6E62",
"(  c #6D6E62",
")  c #6E6F67",
"_  c #6B6C63",
"`  c #6F7064",
"'  c #6F7164",
"]  c #6F7065",
"[  c #6F7163",
"{  c #727463",
"}  c #707265",
"|  c #717265",
" . c #717266",
".. c #717366",
"X. c #737564",
"o. c #737467",
"O. c #747667",
"+. c #727364",
"@. c #777866",
"#. c #737468",
"$. c #75776A",
"%. c #76776B",
"&. c #73746D",
"*. c #717268",
"=. c #797B6A",
"-. c #7A7B6D",
";. c #787A6E",
":. c #7B7D6D",
">. c #7A7C6F",
",. c #7B7C6F",
"<. c #7B7D6D",
"1. c #777870",
"2. c #7A7C70",
"3. c #7B7C70",
"4. c #7D7F71",
"5. c #7E7F71",
"6. c #7D7F71",
"7. c #7F8074",
"8. c #7E8071",
"9. c #818274",
"0. c #808275",
"q. c #808177",
"w. c #838575",
"e. c #8D8F80",
"r. c #949686",
"t. c #939588",
"y. c #9A9C8E",
/* pixels */
"                                                                                                                                ",
"                                                                                                                                ",
"                                                                                                                                ",
"                                                                                                                                ",
"                                                                                  T p D                                         ",
"                                                                      u       z p T u k I                                       ",
"                                                                      7 x k x f p 3.-.] p                                       ",
"                                                                      1 = m p ~ O.:.k o.7                                       ",
"                                                                          p ~ T ~ t.7.J d u                                     ",
"                                                                          t p ~ 8 q ] D 1.p                                     ",
"                                                                          i k 4.D 3.#.] T y q (                                 ",
"                                                                        8 l f ~ $.$.q.p q 1 % 1                                 ",
"                                                                        e { -.y u q 6 = .                                       ",
"                                                                        q 4.| | i u < @                                         ",
"                                                                      ; p u c f t 2 *                                           ",
"                                                                      3 t B J 6 2 = &                                           ",
"                                                                      8 c k k 7 : *                                             ",
"                                                                    2 y l q.l 4 = *                                             ",
"                                                                    7 f D | u : %                                               ",
"                                                                  = q 0 :.D 4 ;                                                 ",
"                                                                  5 u k | 8 : @                                                 ",
"                                                                  7 e 3.i 2 @                                                   ",
"                                              p i D E           % y 1 p u ; @                                                   ",
"                                            & y i i B x p     & < q u 0 8 : @                                                   ",
"                                          2 = # & 6 E ] q.p y 2 p f #.7 & #                                                     ",
"                                            = @ + , u p E #.f k c | f : & @                                                     ",
"                                          O     # @ = p p D | =.o.@.B p ;                                                       ",
"                                                      : y f l J y.q.B ~ p t w                                                   ",
"                                                        @ i e > t ~ y B c | &.d 0                                               ",
"                                                        % 7 c p y i i d q u f f k i ~                                           ",
"                                                        y 7 t J w.f t 7 t e 7 s k q i                                           ",
"                                                      k f t a :.J B 2 * X = 8 q 4 8 u i                                         ",
"                                                      f f f { c 9 6 ; @     X # : > 9 2                                         ",
"                                                    x o.f D u e 6 8 &           ; ;   8                                         ",
"                                                    8.l <.p 2 1 8 , .             &                                             ",
"                                                    u f e.p * , 7 ;                                                             ",
"                                                  J f t , . > 2 > .                                                             ",
"                                                  | c q 0 ; ; 2 =                                                               ",
"                                                4.B s k 4 1 : : %                                                               ",
"                                                B o.c p 2 : * %                                                                 ",
"                                                k | i q 2 2 #                                                                   ",
"                                              m f { u 7 8 = *                                                                   ",
"                                              s J r.8 4 8 .                                                                     ",
"                                            E q H f @ > ; #                                                                     ",
"                                            ( u t o O 1 -                                                                       ",
"                                          _ m H a 7 : ; %                                                                       ",
"                                          f k f 6 2 ; ;                                                                         ",
"                                        p u i u 1 2 1 =                                                                         ",
"                                        p 8 k q ; 1 :                                                                           ",
"                                        p i u 6 : : =                                                                           ",
"                                      z 7 [ i * 2 :                                                                             ",
"                                      *.7 > @ = > :                                                                             ",
"                                    _ ] 8 > ; * :                                                                               ",
"                                    u p y 7 , = &                                                                               ",
"                                    u y e = $ *                                                                                 ",
"                                  p p e 2 & $ =                                                                                 ",
"                                  T t 2 : : &                                                                                   ",
"                                  r t = * & @                                                                                   ",
"                                  u y $ = =                                                                                     ",
"                                  y 8 * &                                                                                       ",
"                                  q > &                                                                                         ",
"                                  > &                                                                                           ",
"                                  =                                                                                             ",
"                                                                                                                                "
};
