/* XPM */
static char *_07e9d580f7f4143800bbb737a53ab0ffLLa39eDI3NAGWhU[] = {
/* columns rows colors chars-per-pixel */
"64 64 133 2 ",
"   c #020100",
".  c #090600",
"X  c #0D0B04",
"o  c #110700",
"O  c #140A00",
"+  c #1C0D00",
"@  c #161205",
"#  c #1E1000",
"$  c #200F00",
"%  c #231300",
"&  c #2A1600",
"*  c #251905",
"=  c #2D1900",
"-  c #311A00",
";  c #301B00",
":  c #301A00",
">  c #321A00",
",  c #321B00",
"<  c #331B00",
"1  c #301900",
"2  c #301C00",
"3  c #311C00",
"4  c #311D00",
"5  c #321C00",
"6  c #331C00",
"7  c #321D00",
"8  c #331D00",
"9  c #321E00",
"0  c #331E00",
"q  c #341C00",
"w  c #341D00",
"e  c #351D00",
"r  c #341E00",
"t  c #351E00",
"y  c #341F00",
"u  c #351F00",
"i  c #361E00",
"p  c #361F00",
"a  c #371F00",
"s  c #381F00",
"d  c #352000",
"f  c #362000",
"g  c #372000",
"h  c #362100",
"j  c #372100",
"k  c #332205",
"l  c #342305",
"z  c #332305",
"x  c #382000",
"c  c #392000",
"v  c #382100",
"b  c #392100",
"n  c #382200",
"m  c #392200",
"M  c #392300",
"N  c #3A2200",
"B  c #3B2200",
"V  c #3A2300",
"C  c #3B2300",
"Z  c #3C2300",
"A  c #3D2300",
"S  c #3B2400",
"D  c #3C2400",
"F  c #3D2400",
"G  c #3C2500",
"H  c #3D2500",
"J  c #3E2500",
"K  c #3D2600",
"L  c #3E2600",
"P  c #3F2600",
"I  c #3E2700",
"U  c #3F2700",
"Y  c #3F2800",
"T  c #3E2C09",
"R  c #3E2C09",
"E  c #402700",
"W  c #402800",
"Q  c #412800",
"!  c #402900",
"~  c #412900",
"^  c #422900",
"/  c #422A00",
"(  c #432A00",
")  c #432B00",
"_  c #442B00",
"`  c #442C00",
"'  c #452C00",
"]  c #462D00",
"[  c #472D00",
"{  c #472E00",
"}  c #482E00",
"|  c #482F00",
" . c #493000",
".. c #493100",
"X. c #4A3100",
"o. c #4B3200",
"O. c #4C3200",
"+. c #4C3300",
"@. c #4D3300",
"#. c #4D3400",
"$. c #4E3400",
"%. c #4E3500",
"&. c #4F3500",
"*. c #4F3600",
"=. c #503600",
"-. c #503700",
";. c #513800",
":. c #583E00",
">. c #5A4000",
",. c #5B4000",
"<. c #5C4100",
"1. c #5C4200",
"2. c #5D4200",
"3. c #5D4300",
"4. c #5E4300",
"5. c #5E4400",
"6. c #5F4400",
"7. c #5F4500",
"8. c #604400",
"9. c #604500",
"0. c #614500",
"q. c #604600",
"w. c #614600",
"e. c #624600",
"r. c #624700",
"t. c #634700",
"y. c #634800",
"u. c #644800",
"i. c #654A00",
"p. c #664A00",
"a. c #664B00",
"s. c #674B00",
"d. c #684C00",
/* pixels */
"T = = O X X X X X X X X X X X X X X X X X X X X X X X X X X X X X X X X X X X X X X X X X X X X X X X X X X X X X X X X X X * l ",
"k % %                                                                                                                       # & ",
"* o o % % % + +       O + + + + + + o     O + + + + + + + O     . O + + + + + + .     O + + + + O + O     o O + + + + % % % o + ",
"@   . & : = % %       # % % % % % % +     # % % % % % % % +     . % % % % % % % O     # % % % % % % #     O % % % % % : = =   . ",
"@   . & : = % % .     # % % % % % % +     # % % % % % % % #     . % % % % % % % O     % % % % % % % %     O % % % % % : : =   . ",
"@     % & & & = % % % % $ $ & = & % # % % & = = = = = = = & % % % % % & & & % $ % % % & = = = = & = & % % % % $ & = & + + O   . ",
"@     % % % = : : = = + + + = : = + % = = : : : : : : : = : = = & + % : : & + + % = = : : : : : : : : = = % + + & : &         . ",
"@     % % % = : : : : % $ % = : = $ % = : : : : : : : : : : : : & % % : : & % + % : : : : : : : : : : : : & % $ & : &         . ",
"@     % % % = : % % % <.y.6.= % & D D ~ ~ ~ ~ ~ ~ ~ ~ ~ ~ B % % B <.&.% % = D Y ` &.&.&.&.+.~ ~ ~ ~ D % % o.9.y.Z + + % % #   . ",
"@     % % % = : % % % 9.d.u.= % & ~ ~ ~ ~ ~ ~ ~ ~ ~ ~ ~ ~ B % % B 9.;.% % = Y ~ ` &.=.=.=.&.~ ~ ~ ~ D % % &.u.d.D + + % % %   . ",
"@     % % % = : & % % <.y.6.= % & ~ ~ ~ ~ ~ ~ ~ ~ ~ ~ ~ ~ B & % B 6.&.& % 6 Y ~ ` &.=.&.&.&.~ ~ ~ ~ D % & +.9.y.Z + + % % %   . ",
"@     % % % + + g B B & & & D D Y ~ ` &.&.~ ~ ~ ~ ~ ~ 6 : w B B g & 6 D D ~ ~ ~ ` &.&.~ ~ ~ ~ ~ ~ 6 6 B B 6 & & = : = % % %   . ",
"@     % % % + + B D B % % % D ~ ~ ~ ` &.=.~ ~ ~ ~ ~ ~ : : w B D g % = ~ ~ ~ ~ ~ ` &.&.~ ~ ~ ~ ~ ~ : : D B = % % & : : % % %   . ",
"@     % % % + + g D B % % % D ~ ~ ~ ` &.=.~ ~ ~ ~ ~ ~ : : w B D g % = ~ ~ ~ ~ ~ ` &.&.~ ~ ~ ~ ~ ~ : : D B = % % & : : % % %   . ",
"@         . & = B D D B B g w 6 w ~ ~ ~ ~ ~ ~ ~ w 6 w B B D ~ ~ Y D g & & 6 Y ~ ~ ~ ~ ~ ~ ~ w 6 6 B B D D B B B & $ $ % % %   . ",
"@           & : B D D D D B : : w ~ ~ ~ ~ ~ ~ ~ : : : B D D ~ ~ ~ ~ g % % = Y ~ ~ ~ ~ ~ ~ ~ 6 : : B D D D D D D & + + % % %   . ",
"@     + % % = : D ~ D ~ D D D D D w w ~ ~ = & & B B B D D ~ +.&.o.~ D D D B w w B ~ Y & & & B S B D D ~ D D D D w = & . .     . ",
"@     % % % = : D ~ ~ ~ ~ ~ ~ ~ D : w ~ ~ & % % B D D ~ ~ ` &.=.o.~ ~ ~ ~ B : : s ~ D % % % B D D D D ~ ~ ~ ~ ~ B : &         . ",
"@     + % % = : D ~ ~ ~ ~ ~ ~ ~ D w w D D 6 = = B B B ~ ~ ` +.&.o._ ~ ~ ~ Z w 6 s D D = = = g B B D D ~ ~ ~ ~ ~ B : = .       . ",
"@         . & : D ~ ~ &.&.&.~ ~ D S g % % ,.y.y.& % % Y ~ ~ ~ ~ ` &.o.~ ~ D D B 6 % & 6.y.6.& % % B D ~ ~ o.&.&.D : = % % #   . ",
"@         . & : D ~ ~ &.=.&.~ ~ E D B % % <.u.u.& % % D ~ ~ ~ ~ ` &.o.~ ~ D D D 6 % & 9.u.9.& % % B D ~ ~ o.&.=.D : : % % %   . ",
"@     + + + % % D ~ ~ ` ` ` ~ ~ D D B g g g g g B B S = & 6 D ~ ~ ` ~ ~ ~ D D D B g g g g g B B B w w ~ ~ ~ ` ` B : : % % %   . ",
"@     # % % + + D ~ ~ ~ ~ ~ ~ ~ D D D D B & % % D ~ D % % = D ~ ~ ~ ~ ~ ~ D D D D D B % % % D ~ ~ : 6 ~ ~ ~ ~ ~ B : : % % %   . ",
"@     % % % + + D ~ ~ ~ ~ ~ ~ ~ D D D D B & % % Y ~ D % % = D ~ ~ ~ ~ ~ ~ D D D D D B % % % Y ~ ~ : 6 ~ ~ ~ ~ ~ B : : % % %   . ",
"@     % % % & = : 6 6 D D D D D D D B 6 : D D D ~ ~ ~ D D B 6 6 w D D D D D D D B 6 6 D D D ~ ~ ~ D D 6 6 Z ~ ~ B : : % % %   . ",
"@     % % % = : : : : B D D D D D D B : : D ~ ~ ~ ~ ~ ~ ~ D 6 : w D D D D D D D g : : ~ ~ ~ ~ ~ ~ ~ D : : B ~ ~ B : : % % %   . ",
"@     % % % = : : : : B B B D D D B B : 6 E ~ ~ ~ ~ ~ ~ ~ D w : w B B D D D B B g : 6 ~ ~ ~ ~ ~ ~ ~ Y 6 : B D Y w : = % % #   . ",
"@     % % % = : D D D & % & B D B 6 w D D +.&.&.&.&.+.~ ~ ~ D D B & = B D B 6 6 B D D ~ ~ ~ ~ ~ ~ ~ ~ D D 6 & & = : = .       . ",
"@     % % % = : D ~ ~ % % % B D B : w ~ ~ &.=.=.=.=.&.~ ~ ~ ~ ~ B % = B D B : : s ~ ~ ~ ~ ~ ~ ~ ~ ~ ~ ~ ~ 6 % % & : &         . ",
"@     % % % = : D D D 6 = = g B B w w ~ _ &.=.=.=.=.&.~ ~ ~ D D B = 6 B B g w 6 B ~ ~ ~ ~ ~ ~ ~ ~ ~ ~ D D w = = = = & .       . ",
"@     % % % = : & % & ,.9.6.= % & D ~ &.&.=.=.=.=.=.&.~ ~ S & % B <.&.& % 6 D Y ~ ~ ~ ~ ~ ~ ~ ~ ~ ~ D % & o.6.9.B + + % % #   . ",
"@     % % % = : % % % 9.d.u.= % & ~ ` &.=.=.=.=.=.=.&.~ ~ B % % B 9.;.% % = Y ~ ~ ~ ~ ~ ~ ~ ~ ~ ~ ~ D % % &.u.d.D + + % % %   . ",
"@     % % % = = & % & ,.9.<.= % & ~ ` &.=.=.=.=.&.&.&.D D B & % B <.&.& % 6 Y ~ ~ ~ ~ ~ ~ ~ ~ ~ ~ D D & & o.9.9.Z + + % % %   . ",
"@     # % % + + g D S % % % D ~ ~ ~ ` &.=.=.=.=.~ ~ D % % & B D g % = Y ~ ~ ~ ~ ~ ~ ~ ~ ~ ~ ~ ~ ~ : : D B = % % & : = % % %   . ",
"@     + + + % % B D D = = = B D D ~ ~ +.+.+.+.+.D D Z & & = B D g = 6 D D D ~ ~ ~ ~ ~ ~ ~ ~ D D D w w D B 6 & & & & & % % %   . ",
"@         . & : D ~ ~ ~ ~ D 6 : w ~ ~ ~ ~ ~ ~ ~ 6 : : B S D D D D B B : : B ~ ~ ~ ~ ~ ~ ~ ~ 6 : : B D D D D S S & + + % % %   . ",
"@           & : D ~ ~ ~ ~ E w : w ~ ~ ~ ~ ~ ~ ~ : : : B D D D D D D B : : s ~ ~ ~ ~ ~ ~ ~ ~ 6 : : B D D D D D D & + + % % %   . ",
"@     . . o & : D ~ ~ ~ ~ ~ w w w D D ~ ~ D S B 6 6 6 B D D D D D D B w w B B B D ~ ~ S B B w 6 6 S D D D D D D = % % + + +   . ",
"@     # % % = : D ~ ~ ~ ~ ~ ~ ~ D w w ~ ~ & % % B Z B D D D ~ ~ ~ ~ ~ ~ D g & % 6 ~ Y & % % B B B D D ~ ~ ~ ~ ~ s : &         . ",
"@     # % % = : D ~ ~ ~ ~ ~ ~ ~ D : w ~ ~ & % % S D D D D D ~ ~ ~ ~ ~ ~ ~ g % % = ~ D % % % B D D D D ~ ~ ~ ~ ~ B : &         . ",
"@         . & : D ~ ~ ~ ~ ~ ~ ~ D D g % % <.u.u.& % % B D D ~ ~ ~ ~ ~ ~ ~ D B B 6 % & 9.u.9.= % % B D ~ ~ o.&.&.D : = % % %   . ",
"@           & : D ~ ~ ~ ~ ~ ~ ~ Y D g % % <.d.d.& % % B D D ~ ~ ~ ~ ~ ~ ~ D D D 6 % & y.d.y.& % % B D ~ ~ o.&.=.D : : % % %   . ",
"@         . & = D ~ ~ ~ ~ ~ ~ ~ D D B % & :.9.9.& % & B B D ~ ~ ~ ~ ~ ~ ~ D D D 6 % & <.9.6.= % % B B ~ ~ | &.&.D : : % % %   . ",
"@     % % % + + D ~ ~ ~ ~ ~ ~ ~ D D D B D & % % D ~ D : : w D ~ ~ ~ ~ ~ ~ D D D D B B % % & D ~ ~ % % ~ ~ ~ ~ ~ B : : % % %   . ",
"@     % % % + + D ~ ~ ~ ~ ~ ~ ~ D D D D B & % % Y ~ ~ : : w D ~ ~ ~ ~ ~ ~ D D D D D B % % % Y ~ ~ % % ~ ~ ~ ~ ~ B : : % % %   . ",
"@     % % % + + B D Y ~ ~ ~ ~ ~ D D D B B & % % Y ~ ~ 6 : w D ~ ~ ~ ~ ~ ~ D D D D B B % % % Y ~ ~ % & D ~ ~ ~ ~ B : : % % %   . ",
"@     % % % = = & % % B D D D D D D B 6 6 D D D ~ ~ ~ Y D D w 6 w D D D D D D D g 6 6 D Y D ~ ~ ~ D D 6 6 B D D w : : % % %   . ",
"@     % % % = : % % % B D D D D D D B : : D ~ ~ ~ ~ ~ ~ ~ D : : w S D D D D D D g : : ~ ~ ~ ~ ~ ~ ~ D : : B D D w : : % % %   . ",
"@     % % % = : = = = w w w S D D B B w w ~ ~ ~ ` ` ` ~ ~ D g w w w B D D B B B B w g ~ ~ ~ ` ` ` ~ ~ w w w w w 6 : = + + +   . ",
"@     % % % = : D ~ D & & & B S B 6 w ~ ~ ~ ~ ~ &.&.&.~ ~ ~ ~ ~ B & = B B B : : s ~ ~ ~ ~ ~ &.&.&.~ ~ ~ D 6 & % = : &         . ",
"@     % % % = : w g g ~ ~ ~ w 6 6 g B ~ ~ ` ` ` o.o.o.~ ~ D B g B ~ D w 6 w g g B ~ ~ ` ` | o.o.o.~ ~ g g D ~ ~ 6 & % o o o   . ",
"@     % % % = : % % % 6.u.9.= % & Y ~ ~ ~ &.=.=.~ ~ ~ ~ ~ B % % B 9.=.% % = D ~ ~ ~ ~ &.=.&.~ ~ ~ ~ D % % &.u.u.D + + % % %   . ",
"@     % % % = : % % % 6.u.9.= % & ~ ~ ~ ~ &.=.=.~ ~ ~ ~ ~ B % % B 9.=.% % 6 Y ~ ~ ~ ~ &.=.&.~ ~ ~ ~ D % % &.u.a.D + + % % %   . ",
"@     % % % & & = = : o.+.o.w 6 w ~ ~ | | o.o.o.~ ~ ~ B B B : = B o.` 6 6 g ~ ~ ~ | | o.o.o.~ ~ ~ g g = 6 ~ o.+.w % % % % %   . ",
"@     % % % + + g B B & % & D ~ ~ ~ ` &.&.~ ~ ~ ~ ~ ~ 6 : w B B g & 6 D ~ ~ ~ ~ ` &.&.~ ~ ~ ~ ~ ~ % % B S 6 % % = : = % % %   . ",
"@     # % % + + g B B % % % S D D ~ ~ +.&.~ ~ ~ D D D : : w B B g % = D D D ~ ~ ` &.+.~ ~ ~ D D D % % B S = % % & : = % % %   . ",
"@           & : : : : : : = $ + $ : : : : : : : + + + : : : : : : : & + + % : : : : : : : : + + + : : : : : : : % + + % % %   . ",
"@           & : : : : : : = $ + $ : : : : : : : + + + : : : : : : : & + + % : : : : : : : : + + + : : : : : : : % + + % % %   . ",
"@         . & : : : : : : = $ + $ & = = = = & & + + + = : : : : : = & + + % & & = = = & & & + + + = : : : : : : % + + # # #   . ",
"@   . & = = % % % % % % % % % % #   . % % .     % % % % % % % % % % % % % +     o % %       # % % % % % % % % % % % #         . ",
"@   . & : = % % % % % % % % % % #   . % % .     % % % % % % % % % % % % % +     o % %       # % % % % % % % % % % % #         . ",
"@   . % & & % # # # # # # # # # +   . + #       + # # # # # # # # # # # # O     . # +       + # # # # # # # # # # # +         X ",
"k % #                                                                                                                       # & ",
"T = = O X X X X X X X X X X X X X X X X X X X X X X X X X X X X X X X X X X X X X X X X X X X X X X X X X X X X X X X X X X * l "
};
