/* XPM */
static char *_fe96076fc0a4bbca443db7f38351c98LGBKwopve9CV3W4v[] = {
/* columns rows colors chars-per-pixel */
"32 32 2 1 ",
"  c black",
". c #0040FF",
/* pixels */
"                                ",
"  ............................  ",
" .............................. ",
" ....                      .... ",
" ...                        ... ",
" ..                          .. ",
" ..                          .. ",
" ..                          .. ",
" ..                          .. ",
" ..                          .. ",
" ..                          .. ",
" ..                          .. ",
" ..                          .. ",
" ..                          .. ",
" ..                          .. ",
" ..                          .. ",
" ..                          .. ",
" ..                          .. ",
" ..                          .. ",
" ..                          .. ",
" ..                          .. ",
" ..                          .. ",
" ..                          .. ",
" ..                          .. ",
" ..                          .. ",
" ..                          .. ",
" ..                          .. ",
" ...                        ... ",
" ....                      .... ",
" .............................. ",
"  ............................  ",
"                                "
};
