/* XPM */
static char *_fc22c316fbc4519abdcab9a0d0b5910RvxmvUbfFt5tFCKw[] = {
/* columns rows colors chars-per-pixel */
"32 32 5 1 ",
"  c None",
". c black",
"X c #D08100",
"o c #F7A724",
"O c #DFCE00",
/* pixels */
"                                ",
"                                ",
"                                ",
"                                ",
"                                ",
"                                ",
"                                ",
"             ......             ",
"           ..OOOOOO..           ",
"          .OOXXXXXXOO.          ",
"         .OooooooooXXO.         ",
"        .OoooXOOOOOooXO.        ",
"        .OooXOOoooOOoXO.        ",
"       .OooXOOoooooOooXO.       ",
"       .OooXOooooooOooXO.       ",
"       .OooXOoooooooooXO.       ",
"       .OooXOoooooooooXO.       ",
"       .OooXOooooooOooXO.       ",
"       .OooXOOoooooOooXO.       ",
"        .OooXOOoooOOooO.        ",
"        .OoooXOOOOOXooO.        ",
"         .OoooXXXXXooO.         ",
"          .OOooooooOO.          ",
"           ..OOOOOO..           ",
"             ......             ",
"                                ",
"                                ",
"                                ",
"                                ",
"                                ",
"                                ",
"                                "
};
