/* XPM */
static char *_d9522356a624f2d94b1d36bf32706aeqNqRe229t9aIo45E[] = {
/* columns rows colors chars-per-pixel */
"64 64 195 2 ",
"   c None",
".  c #000000",
"X  c #0A0604",
"o  c #0E0804",
"O  c #100704",
"+  c #140A04",
"@  c #1B0C04",
"#  c #1E1007",
"$  c #240E05",
"%  c #290F06",
"&  c #210D08",
"*  c #271003",
"=  c #241309",
"-  c #2C1A0D",
";  c #2D1609",
":  c #3F1B07",
">  c #341D0D",
",  c #391E0E",
"<  c #361604",
"1  c #341E10",
"2  c #37200E",
"3  c #3A220E",
"4  c #362111",
"5  c #3C2411",
"6  c #3F2815",
"7  c #3E2B18",
"8  c #441C06",
"9  c #4D1E03",
"0  c #4A1705",
"q  c #501E04",
"w  c #44240F",
"e  c #4C220A",
"r  c #492A0E",
"t  c #512308",
"y  c #552809",
"u  c #5C2C0D",
"i  c #572706",
"p  c #5E320C",
"a  c #422612",
"s  c #452A14",
"d  c #4B2C14",
"f  c #442E19",
"g  c #4B2E18",
"h  c #522D14",
"j  c #4D3116",
"k  c #4C321A",
"l  c #453119",
"z  c #543316",
"x  c #5A3516",
"c  c #5E3816",
"v  c #53341A",
"b  c #5A351A",
"n  c #56391C",
"m  c #5C3B1B",
"M  c #6F3006",
"N  c #67370D",
"B  c #7B3606",
"V  c #613515",
"C  c #603817",
"Z  c #6A3B16",
"A  c #64371A",
"S  c #623D1B",
"D  c #6B3D1C",
"F  c #713F1E",
"G  c #553B21",
"H  c #5B3E21",
"J  c #623D21",
"K  c #6B3E20",
"L  c #5E401D",
"P  c #7A400B",
"I  c #65411D",
"U  c #6B431D",
"Y  c #6B481F",
"T  c #734217",
"R  c #7B4516",
"E  c #71441D",
"W  c #74491D",
"Q  c #794B1D",
"!  c #79471D",
"~  c #5E4223",
"^  c #644324",
"/  c #6B4422",
"(  c #614826",
")  c #6D4923",
"_  c #6C472A",
"`  c #6C4B29",
"'  c #664D2E",
"]  c #724523",
"[  c #794422",
"{  c #744B23",
"}  c #7A4C24",
"|  c #744D2A",
" . c #794C29",
".. c #7C5225",
"X. c #75532C",
"o. c #7C532C",
"O. c #755127",
"+. c #6C4C30",
"@. c #725531",
"#. c #7C5431",
"$. c #795A33",
"%. c #7E6135",
"&. c #8A480A",
"*. c #844D19",
"=. c #884D15",
"-. c #89531F",
";. c #814D23",
":. c #835525",
">. c #8A5326",
",. c #825926",
"<. c #885927",
"1. c #82532A",
"2. c #8D542B",
"3. c #84592B",
"4. c #8A5B2D",
"5. c #925B2C",
"6. c #92572A",
"7. c #835B32",
"8. c #8C5C32",
"9. c #895D39",
"0. c #915B32",
"q. c #985F30",
"w. c #935A3A",
"e. c #8F632E",
"r. c #97652F",
"t. c #9F702E",
"y. c #8C6334",
"u. c #8F6139",
"i. c #8B6A3D",
"p. c #836537",
"a. c #926534",
"s. c #9B6735",
"d. c #9A6935",
"f. c #9C663A",
"g. c #966B3C",
"h. c #9A6C3B",
"j. c #936838",
"k. c #90703F",
"l. c #9D723C",
"z. c #A0632F",
"x. c #A76635",
"c. c #A36B35",
"v. c #A36C3A",
"b. c #A86E3E",
"n. c #A96D36",
"m. c #AC7537",
"M. c #A3733D",
"N. c #AD753D",
"B. c #A67A3C",
"V. c #AA7B3E",
"C. c #B77E3D",
"Z. c #B3733D",
"A. c #8F6D41",
"S. c #996840",
"D. c #966D44",
"F. c #8E7346",
"G. c #947344",
"H. c #9C7343",
"J. c #977846",
"K. c #9F7844",
"L. c #9C774A",
"P. c #977D51",
"I. c #AC6B40",
"U. c #A17443",
"Y. c #AC7342",
"T. c #A27A43",
"R. c #AF7A45",
"E. c #BC7D49",
"W. c #BA7C46",
"Q. c #B6813F",
"!. c #9F8151",
"~. c #AA834A",
"^. c #B18343",
"/. c #B98341",
"(. c #B6874E",
"). c #BC8648",
"_. c #AA8356",
"`. c #BA8751",
"'. c #B58E50",
"]. c #B7985C",
"[. c #A28F6E",
"{. c #AD8C61",
"}. c #A9916C",
"|. c #BA9D65",
" X c #B8A77D",
".X c #C4884E",
"XX c #C29B55",
"oX c #C59E5E",
"OX c #D1A95F",
"+X c #D09861",
"@X c #C89E72",
"#X c #C7AB68",
"$X c #C0A66B",
"%X c #C1AD70",
"&X c #C4B681",
/* pixels */
"                                                                                                                                ",
"                                                                                                                                ",
"                                                                                                                                ",
"                                                                                                                                ",
"                                                                                                                                ",
"                                                                                                                                ",
"                                                                                                                                ",
"                                                                                                                                ",
"                                                                                                                                ",
"                                                      . .     . . . .                                                           ",
"                                                  . . v z . . b d d g . . . . .                                                 ",
"                                            . . . n m E [ ;.q.Z.b.S.9.0.1./ v k . .                                             ",
"                                          . J w.U.A.o.}  .0.E.E.+X@X_.D.j.i.X.H / z . .                                         ",
"                                      . . b 8.&X].J.T.o.J  .I.#.`.{.9.v 8.g.4.#.7.2.K s .                                       ",
"                                    . h v #._.%X~.l.7.^ H H D b 0.9.n s / ] D [ 8.f.7.J .                                       ",
"                                  . S c.2.Y.i.g.j.^ d b v ~ b a G | g s x V h A >.6.g.+.g . .                                   ",
"                                . . O.OX).o. ._ _ v s f s n k g v | v s b , w h Z V [ o.` s x . .                               ",
"                              . J o.m./.h.1./ v k s ^ 6 5 k s 4 5 b 4 , a 3 a d a d A }  .J / o./ .                             ",
"                            . v j.^./.a.m m _ 1 5 4 v 5 a f 5 s , 5 4 5 a s v s , r z v ^ m 2.M.M.] .                           ",
"                            . D l.M.v.} b 5 b 5 , 1 s a a d d d > 5 > a d d a a , s a 1 v b m s..XY.n .                         ",
"                          . C / | 1.] m h s > 4 - s g I d m m I g g v x b d 3 2 5 > > 5 v k H ^ 1.N.3..                         ",
"                        . b 4.2.8./ s - a > = > b g / / | { ../ j s b z S x s 5 a , s a s s k J ;.a.@.h .                       ",
"                        . S h.>.A , s 5 = , # - z m / m U I ! { z b ^ S I I a s z 6 5 s 4 1 h } { s m S .                       ",
"                        . 1.d.;.A a a 3 C a = 5 m S D I U I E ] I E / I S U m b n b a 4 a s s / ] c D s s .                     ",
"                      . m 8.s._ v } m s - 3 s s b x U I { { E D { E ..I { W x n n I d 5 d 5 5 m c s b s .                       ",
"                      . a.^.>./ > v { 5 3 3 5 d S I { x ....m c m T { I / S D z I m S s 5 > 5 n H A A U 3 .                     ",
"                    . m h.V.>.{ > , s 4 z b j z b ! <.U I { Z ..I U E U I S U S S I x s 3 5 5 a m ] g.C.d./ .                   ",
"                      . O.B.5.3.{ s g s z n S / c U W Q Z *.=.*.P &.*.:.:.Y D U D D b d 5 a a 5 g _ u.n.Q.] .                   ",
"                      . l g.1.~ f 5 a s z m S { O.{ W -.R B B 9 q 8 9 R 5.U U I E S m b j d a 5 a k 8.c.m.D .                   ",
"                      . 7 A b g s , - 4 a b x U Z Z { T M 0 % @ + + $ 8 ;.T } { U W c S S d s 4 a s J 8.z.h .                   ",
"                    . d s b 4 g 3 3 > 3 s z U E { U W V e @ @ O o O + @ t Z 3.{ W :.U } { z v a s b K v.x.A .                   ",
"                    . z n > a J I h s x U / / I m m Z u $ @ O X X X o + < d / I ..) I m n d 3 , s b ] N.x.F .                   ",
"                    . g ~ a K G n v z x m S m S I } p u * @ X X X X o + % z ....<.I I g d g 5 5 s z  .^.R.1..                   ",
"                    . ^ G a.| ^ d a s S x / W Q E W N u * O X X X X X o & h I <.{ S S m n g , 4 5 k g g.T.3..                   ",
"                    . $.~.f.H ^ d 4 3 v n S I ..I j r y @ + X . . X X O $ w ..:.{ I I } m I s a a k n @.H.^ .                   ",
"                    . @.|.7.o.9.v a a d d b :.4.m m c V : @ O + X o O O ; ,.{ ,.^ m S S x x x g s s / K.H.^ .                   ",
"                    . ' G.G.3.^ n 3 , s b b { { S W ,.U u , @ @ @ + @ t d { ! / S x / / { m c z h x 1.U.8.G .                   ",
"                    . k G.M.b g v d h I :.:.b ) C I W j T E u t 8 8 w { e.O.{ S Z b S S z g , a h Z a.g.| 5 .                   ",
"                      . ) 1.g v s 4 d b { m { 3.r.<.L I ,.{ U N x T o.t...I S { U I z / 3 5 > 3 s z 7.o.m .                     ",
"                      . f _ J g v s 5 z / d m z U O.W ! I S | U :.O./ ` m I b I I x b n b d s d w x ^ ] I .                     ",
"                        . s 5 k g d g s g z d m :.:.} { O.m m b / I b I S { I I E d x n z j s C C / s D g                       ",
"                          . s 4 d > 2 d I g x Z ..c O.U S I m d m I U b m I E c { s j v z d 3 m { J b C .                       ",
"                          . m ^ n b d z b b D U z { { O.S U I b U U I x ;.U I c m x a 3 a v b I 3.1.b .                         ",
"                          . / #.g.l.7.D j v S c s z S m x S m U S I d z I { m j z x s 5 a b O.7.1.} 1..                         ",
"                          . g / 4.}.!.` m g x b d h b b b 5 S S d n z s z m v s j d k k m ^ X.g.} b / .                         ",
"                            . . p.[.P.l.} D x z w Z v j s a j D x S s 3 s z g k s - s b | 7.T.1.E v .                           ",
"                              . ` d.v.z.d.d.{ I S n m m s > 3 h h 5 2 3 3 v a s j 5 5 m X.~.'.5.s .                             ",
"                                . I #.L.|.oXl.O.J h ) b s 3 s z g a 2 5 3 3 a 5 v m ` g.~.K.} v .                               ",
"                                  . b F. X#XXXy.o.r.I x g b H b A g a 4 3 , 4 n ` o.h.(.h.n . .                                 ",
"                                    . . %.T.$XM.l.T.X.n ^ ~ ` ~ } I S n k f G 7.~.^.7.S h .                                     ",
"                                        . n j.d.B.y.X.i.k.G.g.` j.o.| H n k H g.XXa.g z .                                       ",
"                                          . . . n k ( p.i.T.y.X.W.5.a.| m n f b m . . .                                         ",
"                                                . . . . . k l g } 1.D b s . . . .                                               ",
"                                                        . . . . . . . . .                                                       ",
"                                                                                                                                ",
"                                                                                                                                ",
"                                                                                                                                ",
"                                                                                                                                ",
"                                                                                                                                ",
"                                                                                                                                ",
"                                                                                                                                ",
"                                                                                                                                ",
"                                                                                                                                ",
"                                                                                                                                "
};
