/* XPM */
static char *_ce7e09a162f4783ad46f49ebafceee4qQAIOMpaTby18khl[] = {
/* columns rows colors chars-per-pixel */
"64 64 240 2 ",
"   c #13100B",
".  c #151514",
"X  c #181818",
"o  c #1B1C1C",
"O  c #23221D",
"+  c #21201E",
"@  c #1D1E22",
"#  c #232323",
"$  c #282726",
"%  c #2A2926",
"&  c #24262A",
"*  c #27282C",
"=  c #2B2B2C",
"-  c #2D2F2E",
";  c #302E2D",
":  c #31302D",
">  c #39362F",
",  c #272B34",
"<  c #2C2E31",
"1  c #2E3134",
"2  c #333334",
"3  c #383735",
"4  c #3A3936",
"5  c #34353A",
"6  c #37383C",
"7  c #3B3B3D",
"8  c #44311D",
"9  c #493724",
"0  c #523C24",
"q  c #69471F",
"w  c #5A442B",
"e  c #43413D",
"r  c #574434",
"t  c #634829",
"y  c #6C4E2E",
"u  c #73542F",
"i  c #644D35",
"p  c #6B4E33",
"a  c #6B5134",
"s  c #6D543B",
"d  c #745533",
"f  c #785736",
"g  c #7C5A34",
"h  c #75593B",
"j  c #7C5C3B",
"k  c #7F603E",
"l  c #2B3341",
"z  c #353A42",
"x  c #3C3E42",
"c  c #3F4044",
"v  c #3E424B",
"b  c #3D4452",
"n  c #3D5461",
"m  c #424345",
"M  c #494744",
"N  c #4D4A45",
"B  c #44464A",
"V  c #47484C",
"C  c #4A4B4D",
"Z  c #524F48",
"A  c #55524D",
"S  c #57544C",
"D  c #444A52",
"F  c #4C4D51",
"G  c #484D59",
"H  c #4F5054",
"J  c #4D535C",
"K  c #535454",
"L  c #595856",
"P  c #54565A",
"I  c #5B5B5C",
"U  c #735941",
"Y  c #7B5E42",
"T  c #605C56",
"R  c #5F605F",
"E  c #7D6144",
"W  c #63615D",
"Q  c #6E7059",
"!  c #4E5664",
"~  c #555B66",
"^  c #5C5E61",
"/  c #5E6164",
"(  c #5E6269",
")  c #4F6376",
"_  c #5E6571",
"`  c #626263",
"'  c #6B6963",
"]  c #64666A",
"[  c #66686C",
"{  c #6A6B6D",
"}  c #6F716B",
"|  c #646B76",
" . c #6D6E71",
".. c #6E7173",
"X. c #6E737C",
"o. c #727375",
"O. c #74767A",
"+. c #76797C",
"@. c #7A7C7D",
"#. c #845A2F",
"$. c #835D32",
"%. c #815E3A",
"&. c #856036",
"*. c #8C6436",
"=. c #85623C",
"-. c #8A653C",
";. c #8E683D",
":. c #936B3E",
">. c #996E3D",
",. c #9C723F",
"<. c #A6763D",
"1. c #846443",
"2. c #8A6641",
"3. c #8D6943",
"4. c #8A6A4B",
"5. c #936D43",
"6. c #996F41",
"7. c #936D49",
"8. c #967045",
"9. c #9B7244",
"0. c #96714A",
"q. c #9C754A",
"w. c #9F784E",
"e. c #816753",
"r. c #9A7651",
"t. c #A27644",
"y. c #A47845",
"u. c #AC7C45",
"i. c #A17749",
"p. c #A3794B",
"a. c #AA7D4B",
"s. c #B17F44",
"d. c #A87D53",
"f. c #827E7B",
"g. c #AD804C",
"h. c #B48146",
"j. c #BB8446",
"k. c #B4834C",
"l. c #BA864C",
"z. c #BD894C",
"x. c #AC8150",
"c. c #B48551",
"v. c #BC8A52",
"b. c #BB8955",
"n. c #85827E",
"m. c #B38B61",
"M. c #C48D4D",
"N. c #C88F4D",
"B. c #CC934E",
"V. c #C9954D",
"C. c #D2954E",
"Z. c #C28D52",
"A. c #C59154",
"S. c #CC9353",
"D. c #CA955A",
"F. c #CC9559",
"G. c #D29653",
"H. c #D49A55",
"J. c #DA9D56",
"K. c #D09758",
"L. c #D39A5B",
"P. c #DA9E5A",
"I. c #DEA155",
"U. c #DDA15B",
"Y. c #E3A45B",
"T. c #E7A759",
"R. c #F0AF58",
"E. c #F6B55D",
"W. c #D29C61",
"Q. c #DDA260",
"!. c #E5A762",
"~. c #F2AE62",
"^. c #F8B864",
"/. c #FFC669",
"(. c #477788",
"). c #6B7686",
"_. c #757C87",
"`. c #7B7E82",
"'. c #737E95",
"]. c #7D8084",
"[. c #7E8289",
"{. c #7C8392",
"}. c #6188A2",
"|. c #828385",
" X c #888684",
".X c #83868A",
"XX c #85898D",
"oX c #8A8B8D",
"OX c #92928C",
"+X c #848995",
"@X c #8B8E91",
"#X c #8E9194",
"$X c #8C939B",
"%X c #929395",
"&X c #989794",
"*X c #939699",
"=X c #96999D",
"-X c #9A9B9D",
";X c #A19E98",
":X c #A2A19C",
">X c #8B95A4",
",X c #969CA5",
"<X c #9C9EA2",
"1X c #9EA1A5",
"2X c #9CA2AC",
"3X c #9BA5B2",
"4X c #A2A3A5",
"5X c #ABA9A5",
"6X c #A3A6AA",
"7X c #A6A9AD",
"8X c #AAABAD",
"9X c #B1B0AC",
"0X c #B2B1AC",
"qX c #A2A7B0",
"wX c #A5ABB4",
"eX c #ABAEB2",
"rX c #AEB1B5",
"tX c #ADB2BA",
"yX c #B2B4B5",
"uX c #B8B6B0",
"iX c #BABAB6",
"pX c #B1B5BA",
"aX c #B6B9BE",
"sX c #BDBDBB",
"dX c #C0BFBD",
"fX c #C1C1BE",
"gX c #AFB7C6",
"hX c #B5BCC4",
"jX c #BABEC4",
"kX c #B5BCC8",
"lX c #AFC6CC",
"zX c #BEC1C6",
"xX c #B6C2CD",
"cX c #BCC2C9",
"vX c #C3C3C2",
"bX c #C2C4C9",
"nX c #CAC9C9",
"mX c #D0D1CD",
"MX c #CACDD2",
"NX c #D5D4D3",
/* pixels */
"S.z.z.Z.P.Q.D.v.H.R.R.R.E.T.E.y <.j.u.,.s.M.T.C.G.Y.A.A.U.!.!.S.D.D.L.Q.U.F.S.K.Y.Y.S.z.A.U.~.^.j.A.K.B.S.l.z.T.T.~.T.K.P.U.P.T.",
"z.s.N.S.S.J.~.^.Y./.^.E.E.Y.B.B.y u.M.M.<.<.C.H.I.G.y.l.k.L.L.Z.K.F.F.K.K.S.S.S.Y.T.z.l.s.k.Q.!.u.t :.M.z.S.A.Z.U.J.U.J.P.H.J.Y.",
"z.u.z.S.S.G.S.T.J.^.E.R.J.I.j.t.G.9.T.V.<.j.l.h.T.H.z.k.Z.K.S.z.L.K.Z.k.i.Z.F.K.U.F.g =.y.:.D.U.J.*.g y.S.J.J.H.H.J.P.G.U.P.H.H.",
"N.z.z.S.S.H.B.B.S.H.H.C.B.N.N.-.h.I.^.V.$.$.d N.Y.G.S.S.P.L.S.Z.K.A.g.g.c.D.F.L.P.Q.Z.d d t.K.P.M.z.>.s.J.Y.S.G.J.P.P.S.J.U.P.G.",
"u.z.N.G.S.M.M.S.S.N.S.B.M.y.-.h.B.^.^.J.$.$.&.Y.!.<.z.z.S.G.S.S.S.z.u.y.b.D.A.A.D.W.P.a.y d Z.z.d f a.S.M.S.Y.y.J.P.Z.h.S.P.H.J.",
"h.k.@.8XeXeX8X8X4X4X4X7XeX8XeX7X4XeXeXeXeXeXeXeXeXrXeXrXeXeXeXrXeX7XeX8XrXrXrXrXrX7XrXrXrXpXrXrXrXeXpXpXyXeXpXeXpXpX1XpXaX7XK.T.",
"S.u.oXeX8XeX8XeX6X8X7XrXeXrXeX8XeXeX8XeXrXrXeXeXeXrXeXrXrXeXrXeXeXrXrXrXrXrXyXrXpXrX7XpXpXpXrXpXrXeXpXpXrXeXpXrXpXaXaXpXpX7XY.h.",
"l.l.@XeXeXeXeXeX7X8X4X6XeX8XeXeXeXeXrXeX7XeXeX6XrXrXrXrXrXrXeX7XeXrXrXrXrXrXeXpXrXpXrXpXpXaXpXpXpXpXrXpXpXpXpXpXpXaX6XaXaX1XS.-.",
"k.k.-XeX8XrX8XeX8X7XeX8XeX7XeXeXeXrXeXeXrXrXeXeXrXeXrXrXrXrXeXrXrXyXrXrXrXrXyXpXpX1XrXpXrXpXpXpXpXpXrXrXpXpXpXaXaXaXaXhXaX<Xl.<.",
"-.y.yXeX8XeXeXeX8X8X8X4X8XXX6X8XeX8XeXeXeXeXeXeXeXeX8X6XeXeXrXrXrXyXrXeXrXrX6XrXyXrXrXrXrXrXpXrXrXeX6XpX6XrXpXpXaXaXaXaXaXpXu.9.",
"h.9.NX-X-X-X<X1X_ O.XXoX=X-X-X-X-X-X-X1X<X1X<X-X<X-X*X*X=X*X=X*X<X-X*X*X*X*X-X<X6X6X<X=X*X#X#X*X*X#X%X%X%X*X|.N 6X1X1X6X6XtX0 0 ",
"v.9.t.sXvXiXiX1X$X( F 6 2 5 2 2 2 5 1 5 m |.4X-X` 5 3 2 5 = 5 < < < 1 2 < 5 6 I *X1X].B 5 2 2 = = < 1 2 2 m I ' sXbXbXjXcX>.>.*.",
"9.y.u.iXfXsXvXiX=Xm * 2 2 5 3 2 3 3 5 6 6 F ` 1X[ v.k.l.S.U.Z.9.g.k.M.K.U.S.t.<X@XI C = = = * = = = = = = & m 4XaXzXbXzXzXG.T.J.",
"9.i.9.0XsXvXsXfX$X@ L F m m m m m B c c F F o... .g.a.l.S.K.A.>.k.k.l.A.U.P.A.O.` ] m 6 F B m V C V V B V B # #XjXzXzXzXjXG.H.h.",
"t.c.g.v.fXsXfXiX#X= 3 n.= = # # @ # @ # F F ] @.O.] ` [ ` ] ` ` I ` K I P P I ` ] P 7 m V B F P P H F F P D @ `.zXzXzXzXMXk.Y.J.",
"v.j x.D.dXfXfXsXyX2 m Z # # # 2 2 2 3 6 x x P ` ] { ] ] { { ] ] [ ` B K P ^ ^ I K C 3 ; # o o X # # # # & D & .XzXjXjXjX;.z.s.P.",
":.Z.c.g sXfXfXfXsX@.m 4 ` ` ` W ` ` ` ` & 6 m F B I I ^ o.O. ./ ^ `  . .^ I P 6 7 c 3 7 . % = X N ` ` ` < c P aXzXzXzXhXh.u.N.k.",
"8.=.b.D.fXvXiXvXiX=Xc I W ` ` ` ] ` ` L o 7  XO.O..X.X@XoXoXoXoXoXoXoXoXoXoX|.@.{ `.v K $ K = o o.] ] ] z m XXaXzXzXzXjXJ.S.y.J.",
"y t i.c.a.vXfXfXsX$XD I I ] I L W ` ` I K W ` c.t.g.c.b.c.c.k.a.k.Z.a.5.5.a.A.W.t.` V 7 # @ @ o %X` ` ` & = %XzXzXzXbXNXM.M.l.M.",
"i =.5.i.a.vXfXfXfX6X! [ +.o.o.O.+.O. .R K K I &X0X%X*X%XXX#X@X*X*X.X%X@XXX*X@X,X>X^ F F P ~ ( ] ( ] [ [ ( 3 &XzXzXbXaXt.u.,.u.$.",
"j h 3.q.t.sXsXfXsXiXo.+.|..X XoX^ o.K 2 : : 2 2 = = = = = * = = = = = * & & # & * & & * * J ..] XX.X.X .@.6 iXzXbXzXhXh.u.<.M.g ",
"i 3.0.j 8.5.sXsXsXiX%XoX-X:X-XoXI I 7 2 5 7 7 2 = < = * = = = = = * = & & # # & < x x 7 = * ! ] $X1X6X$X,XoXaXzXzXzXpXi.t.>.N.j.",
"h p.w.0.8.2.uX0X5X5X[ 5X5X4X&Xo.W 7 x J o.`.@. .C 6 6 5 2 5 2 2 5 5 2 5 2 2 2 C  .`.`.O.K 2 , ~ O.,XwX2XqX| qXtXeXtXp.i.a.k.U.u.",
"Y 5.p.-.f 3.C C m m 4 ;X8X-X@.] N z 6 o..X] / / I K { { ` .X.XP .XXXXX+X.._.^ I / ] / `.O.C 2 < | `.2X2X$X[.>X2XqXtX1.0 i.S.:.V.",
"Y 1.q.3.1.3.K K K N 3 iX5XoXO.C 6 6 P XX$X2 < = = < |.].O.1X=X4X6X1X<X2XXX#X6 = = = = |.|.` 3 = 1 ).@XqX+X.XtXjXzXcXb.9.t.H.B.B.",
"h 1.7.3.w.q.L K K M 3 5X:X@.N 5 ~ B  .=X2X{ [ ] ` ] %X@X|.6X7XeX6XeX7XwX*X=X[ ] [ ` ` %X%X..6 M = 1 {.,X,X.XjXjXzXkXi.l.-.z.G.M.",
"r.Y 7.d.d.w.A K K M 3 uXn.C 6 * _ P ].1X6X6X1X<X%X-X-X%X#XeXeXeXrXeXeXtX<X1X1X1X4X<X=X%X*X|.x L = = < {.>X.XjXzXzXjX;.;.*.M.h.M.",
"1.4.1.q.p.p.n.= ; : = :XL x * 5 D F O.XX6XeX4X=X%X@.<X*XoXeXeXeXrXrXeXgX$X=X1X4X6X<X%X-X|.P 2 e 2 # : < ).o.hXzXzX6X>.;.h.G.y.G.",
"p 1.7.0.q.q.A # # = = L 6 < 5 x m I P ..%X7X7X4X4X4X<X-X%X6XrXrX6XrXeXgX*X,X<X7X1X-X6X@.o.3 7 x 2 = $ 2 = ] hXzXzXjXA.z.y.&.9.h.",
"j 2.w.w.2.j L o $ ; n.X.& v 6 x 6 B ^ F O.*X6X8X4X4X1X=X%XtXrXeXrXpX6XhX1X6X6X6X=X7X<XI 6 x m 5 2 = 4 O L _.hXjXzXjXt.l.>.g l.s.",
"E 2.0.5.2.=.W 2 : 3 ' ].* D m m B x F ] F ].XX6X6X4X1X-X%XrXpXrXpXpXeXkX,XeX6X*X8XoX{ 6 m C m x 5 = 4 # ].).tXjXzXpXh.z.<.N.N.<.",
"E 1.2.8.5.5.W # $ 3 ' ].< D x B V C m F / F @.*X4X8X*X*X&XeXrXpXpXrXrXkX6X7X#X7X=X+.6 m B m m c x 3 3 # ].).pXjXzXXXy.y.K.g t q ",
"0.5.q.q.8.q.n.= = ; L ].v G x x V F C c F / F @.#X1X7X=XOXeXpX7XpXpXrXhX6XrXeX<X..7 B C N m B m 6 3 4 % } ).pXhXzXeXk.z.z.*.C.$.",
"7.w.p.i.q.q. X# 3 = M C ).G x m B B F V m B ^ I O.4X6X-XOXpXpXpXpXaX6XcXeXrXeXXXm m C N V m c x 7 2 4 W & ).wXaXhXhXl.y.9.d y.v.",
"5.8.q.q.q.i.n.X o # 4 N V G 5 x m V B C B m B X.o.4X6X*XOX7XeXpXpXpXpXkXwXeXeXoXm C F C C m 7 6 7 = Z = & ).2XwXwX,Xz.a.k.,.>.t ",
"8.8.8.8.i.q.OX# $ : 2 # m | 5 6 B C V B F m C +Xo.-X4X=X%XpXpXaXpXpXrXcXeXeXeX.Xx H C B K C B c 2 $ L # X )._.+X$X>Xb.y.s.y.;.g ",
"5.5.8.q.2.2.;X# $ = $ # m | c 2 B C F D C x F _.{ #X6X*X%XeXeXpXpXrXpXcX7X7XeX#Xx C F m I K B B = 4 N $ o & 3 +X' OXc.y.t.P.S.j.",
"8.8.5.5.5.8.5X= = 3 O & m | B 5 C F  .D C c V >X{ ..oXoX` P P ^ ^ P ^ gX1X6X1XXX7 C C B I +.o.m = 4 Z # X X - >Xn 3Xc.k.i.u.S.t.",
"w.i.9.6.8.8.8X= : 2   = 6 | B 2 F #XK v C x B {.{ O.O. .B 1 2 2 < 2 < >X`.XX`..X6 C C m I F oXK = 3 A # X X 1 f.; %Xx.S.g.i.L.M.",
"a.a.i.9.9.p ;Xm M e   # 5 _ c 2 V `.` D F m C {.o.-X%X .N < = < = = , 3X7X4X1XXX7 C F m K @.o.x = 3 A # X X = ) '.kXq.k.K.S.6.!.",
";.%.j y 0 t &Xe 6 4 . * 4 ~ m 2 V C ] D C m C _...*X4XoXoXtXrXrXaX,XpXkXeXrX7XoXx C C m K { B c = 3 A # o . = }. .xX5.6.b.K.v.l.",
"g 0 t =.>.=.:X4 7 7 X $ : ( c 2 V C C D V c C | ..1X7X-X@XtX<XpXpX#XpXkXwXrX7X@Xx C F m C C B m # 3 S O o . = kXlXcX2.%.a.P.L.S.",
";.=.q.x.i.0.;X7 3 4 O # 2 ~ x 2 6 x x x V m B X...#X6X-XoXrXpXpXpX1XaXkXeXeX6X#Xm C P m 7 x 6 5 = : A # X . = XXQ NX5.i.v.!.S.k.",
"5.5.q.8.3.=. XI I K > $ 2 ~ 6 6 m C F B B B B P o.%X7X*XoXtXeXrXpX<XpXjX7XrXeX.Xm C ^ I C C N 7 = 2 L # o o = (.}.} 8.c.S.!.U.9.",
"8.5.:.8.5.;.nXmXiX0Xe & = ~ 5 x B C V x m c m I %X-X6X*XXX8XpXrXeX@XpXkX7XrXeX8X..m F P K C B 7 = = A # X l @ @ , X.q.c.i.t.h.,.",
"p.5.5.8.6.5.mXmXfX5X: # = ! 6 5 B V m c m x ` @X4X4X%X-X|.eXXXpXpXpXpXhX7X6X6XeX8Xo.c C K K m 7 2 ; Z # o G m c G +.2.q.5.y d >.",
"5.9.;.5.:.NXmXNXiXiX[ # $ ! 5 6 m c m c c / +.*X6X1X<X-X|.eXeXeXpXpXrXgX7XeX1X6X8X6X..c V H C 7 = = Z # X J { I K [ bX3.9.y 0 t ",
"t.i.=.;.;.nXNXvXnXbXXX& # J 2 6 x x x B / |.1X6X1X4X-X%X+.eXrXeXpX1XpXtX7XeXeX1X4XeX7X{ 7 m H x = = N # X o :XI |.` $Xk q.a.w t ",
"p q.j j 8.8XyX8X8X8X_.& # G 5 m x m v / .X=X<X4X6X4X<X%X].6XrXrXrX=XeXtX7XeX8X7X1X*X8X6X{ x m 7 = $ N # . O @X|.XX6X6XY 5.a.=.=.",
"d j f 0 w NXvXbXvXaX_.= # D 1 6 x m / .X*X1X4X1X4X1X-X%X@.eXrXrXrX#XpXtX7X7XeX6X6X<X4X7X-X] 6 6 = # M # . % fXMXMXMXMXh 2.i.k.%.",
"9 i j u >.7XyX8X8XtX_.= O b < 6 6 H @.<X1X1X1X<X-X<X%XXXO.6XeXeXpXrXrXwX6X6X7X6X8X4X-X6X7X@XC 4 = # M O . : uXzXzXzXpXs 1.q.a.%.",
"w 2.a j =.iX%XXX-XtX_.& o b 5 6 5 V { ,X,X#X*X#X#XoXoXoX..7XrXeXrXrXpXeX=X6X=X-X*X=X%X%X-X .m 3 = # N o . > 0XjXbXzXzXi j 3.w.5.",
"0 8.=.8.5.fXeXyXrXeX_.& o G 5 x 5 V I =X,X5 < 6 2 m `.|.{ 6X6XeXeXeXrXwX1X<X3 7 6 5 6 #X-Xo.m 3 : # : # X 4 5XzXzXbXaXw h 1.3.3.",
"w a.a.i.p.vXrXyXeXwX'.< * 2 2 x 5 B I [.$X`.+.@.+.|.].@.[ 6X`.eX].#X7X2X=X=X#XXX.X]..X XoX{ 6 3 7 # O 2 o e 0XzXzXzXjXY Y 1.1.=.",
"w.0.k h q.fXrXeX8XeX'.& z 5 5 6 z c B _.o.`.`.`.`.].`. .I @X<X*X<X].1X2X.X#XXX@X@XoXoXoX X{ 2 3 3 = o X o e 4XzXzXzXzX3.%.%.1.1.",
"r.d.1.d Y vXeXeX8X2X{.5 z 5 6 5 6 x 5 ( ( ] [ ] P ^ ` P m XX[.XXXX.X@X$X....o.{ { o.{ { { C = 3 ; # o . T Z 8XjXzXpXjXb.0.=.2.3.",
"w i Y 7.1.fX8X8X7X2X{.1 x 5 5 5 6 x x m B c 6 5 6 x x c x H P P P P P ! V m B C N m B N M m 7 7 2 = # # S A 0XaX*XeXrXp.q.5.=.=.",
"i i U r.r.iX-X6X1XO._.@ z [ m 6 x x m C F C C m N I [.=X-X4X<X%X-X4X6X<X{ ' I P P P P P P H C C B m ~ H . M <XeX<X@XtXj p =.3.2.",
"s s s E 4.1.i 7.q.q.=.5.a.q.k { K I I I I ` ` o.O.g :.l.K.Z.f d d :.g.8.a.*.=.' |.`. .[  .[ ] @.O.=.3.3.5.i.F.S.*.-.=.y -.d =.1.",
"s Y s i U h Y j j q.;.5.x.5.=.a.8.5.:.:.9.*.t.t.y $.:.;.6.y.6.*.=.c.Z.k.c.:.j 5.i.5.5.5.5.2.%.5.9.9.5.5.8.q.:.*.g g %.:.3.d 1.5.",
"E w.7.U r U 4.p i j 3.j =.d g -.5.=.d >.9.*.S.!.=.%.:.;.=.:.i.a.t.v.P.!.k.5.;.5.3.5.5.3.;.2.9.8.5.6.5.;.5.9.5.=.h.a.5.9.a.j ;.3.",
"e.4.Y w r E 4.j 4.a j j y t 9.t.a.;.i.;.d u g g =.=.5.:.=.=.8.k.K.D.k.k.5.=.5.5.5.5.5.3.;.;.9.5.3.;.3.;.5.5.=.;.b.K.9.;.3.f 2.j ",
"r i i 9 w s 1.d.m.s w j p.i.g.p.Z.j :.:.*.#.$.y w g >.>.;.;.6.=.9.9.>.;.=.;.5.5.;.=.3.3.;.;.=.=.2.3.=.2.k %.;.i.f d u g =.f =.g ",
"e.0 i a 7.i 9 9 7.h p h x.a.k.x.z.a.;.$.*.<.9.t 8.d $.-.-.;.f i.;.=.=.*.-.5.8.;.5.5.g g ;.3.=.2.8.-.2.=.8.5.;.;.*.a 9 8 w w -.j "
};
