/* XPM */
static char *b8a8f8b215fa45e4c86f534d660c6534xrHIi4AIHi4nsAS4[] = {
/* columns rows colors chars-per-pixel */
"64 64 185 2 ",
"   c #3E3024",
".  c #44311D",
"X  c #443323",
"o  c #4A3723",
"O  c #4D3A25",
"+  c #413528",
"@  c #4E3C2A",
"#  c #543D24",
"$  c #593F25",
"%  c #513D2A",
"&  c #69471F",
"*  c #574027",
"=  c #5B4226",
"-  c #55402B",
";  c #5C442A",
":  c #5E492C",
">  c #554332",
",  c #5D4230",
"<  c #5C4837",
"1  c #5E4B39",
"2  c #614626",
"3  c #654A26",
"4  c #62462A",
"5  c #644A2C",
"6  c #6B4D2D",
"7  c #6E512E",
"8  c #74532E",
"9  c #624632",
"0  c #644C33",
"q  c #6B4E33",
"w  c #664F3A",
"e  c #675036",
"r  c #6D5133",
"t  c #67523C",
"y  c #6D543B",
"u  c #745533",
"i  c #795632",
"p  c #765936",
"a  c #7C5A34",
"s  c #73563A",
"d  c #795738",
"f  c #75593C",
"g  c #7C5C3B",
"h  c #7F613E",
"j  c #6A5440",
"k  c #725741",
"l  c #755B42",
"z  c #7B5E42",
"x  c #795F48",
"c  c #7D6144",
"v  c #7D6249",
"b  c #845A2F",
"n  c #825D34",
"m  c #815E3A",
"M  c #846136",
"N  c #8C6436",
"B  c #84623C",
"V  c #8A653C",
"C  c #8E683D",
"Z  c #946B37",
"A  c #91663A",
"S  c #936B3E",
"D  c #9A6E3D",
"F  c #9B713E",
"G  c #A87236",
"H  c #A3733D",
"J  c #AA773F",
"K  c #A7783D",
"L  c #AC7A3F",
"P  c #805F40",
"I  c #846443",
"U  c #896641",
"Y  c #876846",
"T  c #8D6943",
"R  c #83664A",
"E  c #85684C",
"W  c #8C6B4A",
"Q  c #936D43",
"!  c #986F42",
"~  c #926E4A",
"^  c #967045",
"/  c #9C7244",
"(  c #9F7847",
")  c #95714B",
"_  c #9C754A",
"`  c #9F794D",
"'  c #816753",
"]  c #8C6E51",
"[  c #947252",
"{  c #9A7652",
"}  c #9D7952",
"|  c #997758",
" . c #A27645",
".. c #A57945",
"X. c #AB7C46",
"o. c #A17749",
"O. c #A47A4B",
"+. c #AB7D4A",
"@. c #B17F44",
"#. c #B07F49",
"$. c #A47B51",
"%. c #AA7F52",
"&. c #A47F5A",
"*. c #AE804C",
"=. c #B38146",
"-. c #BB8346",
";. c #BD8947",
":. c #B3834C",
">. c #B9864C",
",. c #BD894D",
"<. c #A68056",
"1. c #AC8152",
"2. c #A7815B",
"3. c #AD855B",
"4. c #B48552",
"5. c #B98751",
"6. c #B78853",
"7. c #BC8A52",
"8. c #B1865A",
"9. c #B98758",
"0. c #B68A5B",
"q. c #BC8D5B",
"w. c #B58B61",
"e. c #B88C61",
"r. c #C38C4D",
"t. c #C98F4D",
"y. c #C5914F",
"u. c #CC934E",
"i. c #CD984B",
"p. c #D2954E",
"a. c #C28D52",
"s. c #C88F51",
"d. c #C59154",
"f. c #CB9354",
"g. c #CF9856",
"h. c #C4925A",
"j. c #CC9559",
"k. c #CD995C",
"l. c #D29654",
"z. c #D49A55",
"x. c #DB9D55",
"c. c #D09759",
"v. c #D49B5B",
"b. c #DB9E5A",
"n. c #DEA155",
"m. c #DDA15C",
"M. c #E3A356",
"N. c #E3A455",
"B. c #EAA753",
"V. c #EAA957",
"C. c #E1A159",
"Z. c #E2A45B",
"A. c #E6A55A",
"S. c #E3A45C",
"D. c #E8A75B",
"F. c #E8A75D",
"G. c #E6AC5D",
"H. c #EBAA5D",
"J. c #F0AF58",
"K. c #F1AD5F",
"L. c #F3B05A",
"P. c #F2B05C",
"I. c #F5B45C",
"U. c #F9B65D",
"Y. c #F5BA5F",
"T. c #FAB95F",
"R. c #C39362",
"E. c #CB9964",
"W. c #D39C61",
"Q. c #D79F62",
"!. c #DBA160",
"~. c #DBA263",
"^. c #DEA261",
"/. c #E3A662",
"(. c #E6A965",
"). c #E9AB63",
"_. c #F2AE62",
"`. c #F3B263",
"'. c #F8B763",
"]. c #FAB665",
"[. c #F6BF65",
"{. c #FEBD62",
"}. c #FCBE66",
"|. c #F6C46A",
" X c #FFC669",
/* pixels */
"f.,.,.s.b.^.j.7.z.P.L.J.U.B.I.6 @.;.X.D @.r.D.p.f.m.d.d.m.)./.f.h.h.v.^.m.g.f.z.Z.S.f.5.d.m._.].-.d.z.u.f.-.,.N.A.`.A.z.b.m.b.H.",
",.@.t.f.f.x.`.}.N. X{.T.I.C.u.u.6 X.,.r.L L p.x.x.l...-.:.v.v.a.c.g.g.k.c.f.f.f.Z.H.>.-.#.:.~.).X.5 S r.,.f.d.a.m.x.m.x.b.x.x.Z.",
",.X.,.f.f.l.f.G.x.[.Y.H.x.n.,. .l./ D.u.K ;.-.-.F.l.,.:.a.z.f.,.v.c.a.:.O.a.g.c.m.g.g B ..S j.m.z.M a ..f.x.x.x.z.x.b.l.m.b.z.z.",
"t.,.,.f.f.z.u.u.u.z.z.l.u.t.t.N @.n.}.u.n n i t.S.l.f.f.b.v.f.a.c.d.*.*.4.h.g.v.v.b.a.u i o.c.b.r.,.D @.x.Z.f.l.x.b.b.f.x.m.b.l.",
"X.,.t.l.f.r.r.f.f.t.f.u.r...V =.u.'.`.x.n n N M./.H >.,.f.l.f.f.f.,.X...5.j.d.d.h.Q.v.+.6 u a.,.u a +.f.r.f.Z.X.x.b.s.=.f.b.z.x.",
"=.:.r.f.f.,. .,.t.f.l.f.d...m f.`.S.f.>.X.r.u.M.z.t.=. .,.f.f.s.,.+.X. .d.f.a.7.5.k.W.h...T 5.4./ =.f.f.r.z.X.Z  .X.-.=.r.z.z.A.",
"f.X.t.d.f.f.-.:. . .H n n B f.H.P.f.Z X.>.x.n. .a l.c.7.f.f.f.f.:./ b.v.d.d.d.a.7.a.j.h.7.6.7.f.c.s.F s.f.v.f.l.f.f.:.F -.l.Z.=.",
"-.>.a.-.>.f.-.3 N F ,.+./ f.H.H.x.g.,.a.s./ f.=.r.b.s...f.f.g.g.a.7.S.Z.S.v.f.a.7.7.h.h.h.6.7.g.f.d. .f.f.l.x.A.Z.,.t.f.u.l.f.V ",
":.:.=.=.:.:.F D 6 2 N x.H.].x.V.D B  .t.D ; a.N 5.i r.f.f.f.d.k.-.7.>.f.:.+.f.d.a.7.4.1.*.6.6.a.g.a...+.s.r.d.,.-.t.f.x.l.,.-.H ",
"V ..=.>.a.a.,.r.b.Z.-.Z z.b.x.Z +.+.+.V a.:.X.:.a.m.f.f.l.g.d.>.=.s.7.).>.D +.>.6.4.%._ 1.7.6.7.h.g.:.O.a.a.d.>.=.>...X.:.X.X.F ",
":./ / X.f.Z.t.z.u.l.X.X.r.f.f.V g./.v.#.+.X.=...a.f.d.f.,.=...:.+.k.7.v.S...a ! *.+.4.%.4.1.4.5.h.g.:.V 7.+...a # ..r.,.a # # # ",
"7./  .F t.H.K.;./ r.=.z.D.../ / v.b.a.+.-.l.f.N f.f.r.=.! V V ( *.j.=.r.v.,.C ,.g.>.7.4.4.4.6.4.7.h.*.n C 6 - g g u i a M D D N ",
"/ ..X.:.-.f.C.F -.=.+.d.H.a p  .l.f.*.*.*.5.s.= D 5.:.-.f.m.s./ *.:.r.c.m.f. .-.f.f.f.d.5.X.4.I 5.d.a.M = S / 5.:.V n n r.l.A.z.",
"/ o./ *.c.v.b.f.n  .X.t.x.a Q v.).:./  .a.:.+.S 2 *.+.>.f.c.d.D :.:.>.d.m.b.d.r.a.f.f.a.>.*.g C :.d.j.>./ #.7.,...7.+.X.-.l.z.=.",
" .4.*.5.d.S.v.k.d./ +.m.m...O.~.(.h.+.g V -.f.H >.o.1.4.g.^.g...>.*.V ! +.g.+.a.d.s.a.d.r.a ^ :.>.7.a.7.5.5.N S / a.S :.,.:.S.x.",
"7.g 1.E.f.s./ 4.~.v.7.7./.5.6 4.~.6._ +.g p H J X.I 4.6.5.6.6.4.6.q.:.=.>.7.! 8 a.a.,.,.M # +.a.7.5.4.:.h.7./ j.C u d./ C ,.@.b.",
"S a.4.a d.d./ T Q %.h.k.v... .U T h.9./ u B D |.5...7.h.5.5.4.:.4.i m D M :.V ; 4 X.=.M n :.h.d.h.6.1.) 6 Q 6 # a.1.n X.=.X.t.:.",
"/ B q.j.7./ p c 0 0 ` o. ./ o.Q W ^ 0.4./  .=.m.+.:.:.4.4.4.+.o.+./ O.a I m ^ 5.= $ # 6 ..7.a.5.+.1.Q _ U T 4 4 4 # Q a.x.f...x.",
"6 4 O.4.+.! g z q ~ 4.+...*.O.g c f 1.1.( V a 4./ *.4.5.4.4.4.+.:.a.+.! Q +.h.Q. .A i ..f.a.7.X.o.Q V ` $.` B I g u / +.r.a.:.r.",
"0 B Q o.+.o.( ` %.q.O.O.o.! T q s s T O.5.D ..+.:.4.:.7.6.7.d.a.:.7.f.5.4.j.d.c.a.:.a.f.d.7.:.*.Q o.q 0 g U z g T r /  .X.H X.n ",
"g s T (  ./ ( ( ~ $.O._ Q Q O._ g u p 5././  .*.4.4.:.4.a.d.d.j.5.5.d.a.d.a.a.>.V :.,.v.+.( O.6./ g $.I Y Y x o y r o.=.X.J r.i ",
"0 T ) g / Q Q ~ ~ I ~ Q I T _ 4.6.a.O.h.v.C / +.4.4.:.+.+.5.! ../ ,.d.l.f.f.-.v./ +.=...u / 4.O.X.g ` 0.~ I W % E ` O.O. .D t.-.",
"p O.` ) ^ U T ) Y T ` ~ I I U g O.W. .4.5.h.C +.7.:.:.X...1.X.:.*.:.,.r.,.-.-.b.S *.! a / Q Q ` C ( O._ Y > y z y q.O.O...=.m.X.",
"z Q O.B p T T ~ $.%.+.O.^ T ( 4.d.g.+./ Q :.=./ / 5.4.+.O.O.4.a.a.:.a.7.:.+.,.v.f.5.+.T Q 4.4.O.+.0.Q I $.~ Y + s $.I % o.f.Z i.",
"x Y _ T I T T U ` O.O.O.O.o.+.*. .*.7.7.:.:.S  ...p a +.o.+.5.d.s.s.r.-...>.7.a.7.+...u - Q 6.4.g 7.4.$.Q T f I - h.9./  .z.u.u.",
"s Y ~ T } ` U T _ _ U O.O.( X... .+.:.>.*./ :.*.:.d.5.:.+.+.7.v.l.-.=.M  .a.d.>.=...C s Q ( / 5.~ g 0 r I I g I 5 V o.>.N ,.l.r.",
"[ z ~ %.%.` ` _ O.o.( o.( /  ./ O. .:.:.*.+.>.:.+.+.+.=.:.=.+.+.=.,.7.=.:.7.a.>.+.S 4 I f 0 u q.O.4.8.) _ ) 3.W p i C V N r.=.r.",
"I Y I _ $.O.( Q o./ / ! Q Q O.*.:.+.:.4.:.*.+.5.:.:.+.=.:.:.+.+.X.#...:.>.>.>.:.+./ B U g I T I O.%.U U Y ~ $.g r u D C =.l...l.",
"q Y ~ ) _ _ B u C T Q O.O./ *.7.:.:./ a S +...>.+.#. .=.=.+.+.+.+.../ =.=.:.=.>.+.o.Q s T ~ B g ~ o.) Y z c W g B +.d.,.X.M / =.",
"g Y { _ U g B V B V V / +.+.5.:.o.( p g 6 C +.=. .X...+.+.+.+.+.+.X.+.>.>.:.=.-.*.g U u u g ) O.p ~ $.~ l c W W T _  .-.D a -.@.",
"c Y ) Q U B Q j./ ! / +.4.:.:.+.Q U p 5.o.D ....>.>.+...X.+...X...X. .>.-.:.:.:.>.7.I g I u q ~ s $.I z y l x Y Q O.=.,.H r.y.G ",
"c I I ^ Q Q O.*.o. .O.:.>.a.d.+.Q ( g r / ..:.+.=.=.+. .+.+..... .7 ....:.:.X.=.:.^ Q g : ^ 1.B - @ Y c k l l I O.4...X.z.a 2 & ",
") ~ ( _ / ( _ +.4.+.=.+.:.5.d.>.( ^ q.(.a.! ..X./  .:.>.=.=.X./ :.z.f.>.-.:.:.+.7.+.Q g g I T = B 0 < E l l l v T o.:.,.,.N p.n ",
"~ ( O.o.( ( Q o.o.+...a Q / +.4.o.Q ! / +./ S N +.+.:.X.....O.n +.a.+.>.>.=.X.+.q./ Q m f y q $.I @ > < j v v x ~ +.>.../ i X.7.",
"Q / ( ( ( ( o. .! / ! 8 p B *.1.O.Q ! o.*.+.*...5...D ......=.o.S  .+... . .+.:./ Q B 0   s 1.u y y R x R E v I ~ +.>.+.:.F F 3 ",
"^ ^ / / ( ( / ! B +.4.s.X.S >.+./ Q Q o.O.X.+.7... .X.>.+./ D X.S !  .D / X.X.*./ ( I y 0 % z ) ] R v ] [ { k E Q %.5...@...C i ",
"Q Q / ( V U _ !  .o.7.,.../ / ! V V / +.O.+.+... .X.,.X.+...D O.D / C ! +.:.=. .O.O.Y y t t y R ] ] | | 3.3.c W ~ $.4... .v.f.-.",
"^ _ Q Q Q / o./  .! ! ! / / Q T Q ^ !  .+.:..... ...+.+.+...D B a.5.O.O.*.../ / O.%.~ z k v k E [ &.) W ~ I Y E ) O.4.:.O.+.f. .",
"` o./ Q _ / i Q ! ! C !  ./ C Q / / ( +.+.+.....+.O.+.>.*.+.:.*.6.5.7.5.+.O.O./ +.( O.I f c E [ 2.} z # @ f ~ I Y _ 1.f.=. .v.r.",
"+.+.o./ / q # ! ! S S / / / / (  .O.+.O.u C +.:.>.+.+.:.+. ./ ..:.:.:.+. .o.O.4.a./ _ B s f W | W _ ) ~ { W y { T ) ( :.z.f.! (.",
"V m g 6 # 4 # ! / ( / / Q / / C /  ./ Q D  . ./ Z *. .D S S ! S o.O.O.O.( g I O.d.5.Q T I I g W 3.T ~ ) { Y Y ~ W ) Q ! 5.c.5.>.",
"a # 5 B D B S T / o.^ ! / / / / / ! Q ! / / / X.-.:.A ..*. ./ Q / / ( / Q T Q O.4.:.( i d B g g W f c W z c E c W T U m +.b.v.f.",
"V B _ 1.o.) 5 # ; T N / / o.! / ! Q B a B / >.F ..S n D ..../ / o.! / T V Q Q +./ V T q # # # o o I Y I z c f c I I Q o.5./.f.:.",
"Q Q ( / T I T M I a r g g B D o.+.V ^ D S X.+.N  .r 5 ^ ..+. ./ / ! / Q Q Q _ o.Q U Q / V ; o O , Y W I Y I c c c I / 4.f./.m./ ",
"^ Q S / ! V T _ ( B g ; u u V  .+./ +.z.m.+. .C M ; p / X.+.O./ / Q T T _ Q _ ` ( ) T Q O.! 0 g I W T f y z Y c z z _ 4.o. .=.F ",
"O.Q Q / ! Q g g r O.+.4.a./ !  ./ ! ! +.( ( V 2 6 4 B / ..X.../ ! / ! ^ _ _ Q $.O.o.Q ` 1.z g $.g Q U f I 0 1 R l s U ( Q 6 i D ",
"Q / C ! S g p ; Q r ,.o.a C N  .+./ N r C r Q O t.+.../ O.+. ./ ! Q Q Q Q Q T _ u 4 m I z @ - r 9 I r } } y y c y s z T / 6 # 3 ",
" .o.B C C g s $.q I g Q M 5 p g # 7.a.*.B X.c.+.r v.>.a $ B C p V C ^ ^ ) T g g B U g I z = % - g } e Y I Y I z l y f B _ X.; 5 ",
"q _ g g ^ B 0 I q.4.i ! X.8 Q / / M / B ; u 4 :.c O u g 4 M o.o.:.5.:.+._ I g T O.h.O.B Y } 3.q.0.<.{ W U B Y y c z l z Q +.B M ",
"u g p @ * g 1._ 1.^ f.d./ 7 / 5.:.! / *.p ; / Q / r Q / f.+.o.o./ ! Q Q ^ T m I B Q T B V ) e.1.$.Y ) Y g Y I I W I z f Y o.:.m ",
"X 0 g 8 D Q T g / ! M O...S u = >.2 = = p :.F 7.g.f.=.c.5./ / / ! ! ^ Q ^ Q T p T ~ Q Q ^ ~ Y I p I I l Y W } { W ~ c y I _ +.m ",
"; U r g B g g 6 a g / ( O.i p # 5 N g ^ +.5.d.*./ *.a.X.Q M C / / / / Q ( / Q T ~ T U U U I I I h B I Y Y $.e.8.s y , w g T ` Q ",
"# / B ^ Q 0 = = 2 p g Q ..B Y i p d.=.+.7.a p O.O./ ! / +.O. ./ / / / / ( / _ Q Q T T T T U I Y B B B T $.E.R.0.U r X ; f I T T ",
"; %.+.O.O.4.5 O 6 ! g ( 7.>.Q 6 M M O. ...p 6 A M C D M u 6 !  .! / o./ ( ( o.Q Q T Q T Q Q Q U I V Q O.h.R.1._ $.%.P z z I I B ",
"} ) h p ( O. .5 ; m / ! V N D ! Q ; p >.+.g a M ..a a i S 6 ; T O. .O.o.( _ ( Q ^ ^ Q Q Q ! Q Q U T Q ( O./ T U g 0 T T m m I I ",
"{ &.I u z $.$.$.o m V i / *. .+.V n 6 M n V D 8  .B ....X.Q m p ..:. .*.+._ Q T V T U U T Q C _ T T C C Q ! S T T +.E.q.) B U T ",
"- w g ~ Y g ) Y g 4.a / p 8 Q V a O.! 7 i 5 = 6 n C  .a.*...a 5 ; u # # 6 o.( Q Q Q Q T Q Q Q Q ! Q T U B B = 5 Q ^ O.O.( Q B B ",
"w 0 l [ { f f f T $.~ p i C  . .i ..D / =.*.` ; B B  .z.S.Z.X.2 i = a o.a M T O./ T T Q C Q Q Q Q U p p S M O.:./ V p g q B T U ",
"y y y c W I w ~ ( _ B ! +.( h +.(  .F a D A 5.a ; a S -.c.a.a i i S *./ +.V M ! O.C T T Q Q Q ! C M T T Q o.g.f.V N B 6 V p B I ",
"y z y w k f z g g ( V Q 1.! B X./ ! S Z / N  . .7 n S C ! ..! V B 4.a.:.4.S g ! o.Q Q Q Q U m Q / / Q ! / ( S N p p m S T u I Q ",
"c } ~ k > l Y q 5 g T g B i p N Q B i D / N f./.B m S C B S o.+. .5.b./.:.! V Q T Q Q T V U / / ! ! Q C ! / Q M =.+.Q / O.g V T ",
"E E z - > v W g Y r g g 6 5 /  .+.V O.C i 8 p a B B ! S B B / :.c.j.:.:.! B ! Q Q Q Q T V C / Q T C T C Q ! B C 7.k./ S T d U g ",
"1 w w o - t Y $.w.y ; g O.o.*.O.a.g S S V b n 7 = p D D C V ! B / / D C B B ! Q C B T T C C B B U T B U h m C O.i u 8 p B s B a ",
"' % 0 r T 0 X O W p q p 1.+.:.1.>.+.V n N H / 2 / u n V N V a O.V M B V N T ^ V Q Q a a V T B U ^ C U B ^ Q V C V r o . ; : N g "
};
