/* XPM */
static char *b80f69a479ab48a6aa7cf6fe38697bc9fA7McuGrHSOrDwwy[] = {
/* columns rows colors chars-per-pixel */
"32 32 4 1 ",
"  c None",
". c black",
"X c #FFEC00",
"o c white",
/* pixels */
"                                ",
"                                ",
"                                ",
"                                ",
"            ........            ",
"         ...XXXXXXXX...         ",
"       ..XXXXXXXXXXXXXX.        ",
"      .XXXXX..XXXXXXXXXX.       ",
"     .XXXXX..ooXXXXXXXXXX.      ",
"    .XXXXXX..ooXXXXXXXXXXX.     ",
"    .XXXXXX....XXXXXXXXXXX.     ",
"   .XXXXXXX....XXXXXXXXXX.      ",
"  .XXXXXXXXX..XXXXXXXXX..       ",
"  .XXXXXXXXXXXXXXXXXX..         ",
"  .XXXXXXXXXXXXXXXX..           ",
"  .XXXXXXXXXXXXXXX.             ",
"  .XXXXXXXXXXXXX..              ",
"  .XXXXXXXXXXXXXXX..            ",
"  .XXXXXXXXXXXXXXXXX..          ",
"  .XXXXXXXXXXXXXXXXXXX..        ",
"  .XXXXXXXXXXXXXXXXXXXXX..      ",
"   .XXXXXXXXXXXXXXXXXXXXXX.     ",
"    .XXXXXXXXXXXXXXXXXXXXX.     ",
"    .XXXXXXXXXXXXXXXXXXXX.      ",
"     .XXXXXXXXXXXXXXXXXX.       ",
"     .XXXXXXXXXXXXXXXXXX.       ",
"      .XXXXXXXXXXXXXXXX.        ",
"       ..XXXXXXXXXXX...         ",
"         ...........            ",
"                                ",
"                                ",
"                                "
};
