/* XPM */
static char *_0870b56c1e74189be5feaf621fc83e1g0HnxWuyklmhK20I[] = {
/* columns rows colors chars-per-pixel */
"64 64 217 2 ",
"   c None",
".  c #000102",
"X  c #050509",
"o  c #0A0A0B",
"O  c #080708",
"+  c #150A0B",
"@  c #0C0B12",
"#  c #131314",
"$  c #1C1C1E",
"%  c #18161A",
"&  c #281616",
"*  c #341C1B",
"=  c #2C1507",
"-  c #1A1B22",
";  c #181A28",
":  c #181836",
">  c #211D29",
",  c #361E22",
"<  c #1A2227",
"1  c #1C2034",
"2  c #252525",
"3  c #24242B",
"4  c #2A292D",
"5  c #26272D",
"6  c #2C2C3D",
"7  c #272832",
"8  c #322E3A",
"9  c #332F37",
"0  c #2F333D",
"q  c #33323C",
"w  c #3D3D3D",
"e  c #383639",
"r  c #332927",
"t  c #62050B",
"y  c #462700",
"u  c #713A00",
"i  c #6F3A00",
"p  c #462728",
"a  c #453B3B",
"s  c #53302D",
"d  c #3C493E",
"f  c #2D2B40",
"g  c #2A3441",
"h  c #383944",
"j  c #383D56",
"k  c #160E67",
"l  c #341A78",
"z  c #2B1C65",
"x  c #392563",
"c  c #433E44",
"v  c #3F4550",
"b  c #444244",
"n  c #494446",
"m  c #5E514D",
"M  c #474955",
"N  c #535151",
"B  c #54575B",
"V  c #5B5C5D",
"C  c #5A5457",
"Z  c #5A4A46",
"A  c #6C625E",
"S  c #444B61",
"D  c #5A5D6B",
"F  c #4D5871",
"G  c #605F60",
"H  c #5A647B",
"J  c #5F616E",
"K  c #62656D",
"L  c #6B6B6C",
"P  c #666667",
"I  c #726D6C",
"U  c #7A6B62",
"Y  c #616977",
"T  c #69727D",
"R  c #7A7B7B",
"E  c #757675",
"W  c #76706C",
"Q  c #982200",
"!  c #BB3D00",
"~  c #C72D00",
"^  c #AC5003",
"/  c #B86607",
"(  c #93502C",
")  c #83453F",
"_  c #E15E00",
"`  c #DA6700",
"'  c #D16C06",
"]  c #E16000",
"[  c #E97D00",
"{  c #F47A0A",
"}  c #863F43",
"|  c #874E48",
" . c #8C5152",
".. c #AB5E5B",
"X. c #94675F",
"o. c #A2665B",
"O. c #A55E61",
"+. c #917975",
"@. c #A96565",
"#. c #B76867",
"$. c #B5736E",
"%. c #C56D72",
"&. c #D77974",
"*. c #C1726A",
"=. c #C8911B",
"-. c #EA8800",
";. c #E6817F",
":. c #151B86",
">. c #241D96",
",. c #003682",
"<. c #102283",
"1. c #26319B",
"2. c #173BB9",
"3. c #232CA6",
"4. c #134085",
"5. c #3153B0",
"6. c #755E82",
"7. c #58698B",
"8. c #627288",
"9. c #7D7E84",
"0. c #6A719D",
"q. c #4E4BB4",
"w. c #0800DE",
"e. c #072BCD",
"r. c #0E0AE3",
"t. c #0E4AD9",
"y. c #2E57CB",
"u. c #3D66DF",
"i. c #0242FF",
"p. c #1352FF",
"a. c #1067FF",
"s. c #2661E3",
"d. c #4B79FD",
"f. c #846FC3",
"g. c #74848C",
"h. c #79868D",
"j. c #798C94",
"k. c #778A96",
"l. c #7B909A",
"z. c #7588AB",
"x. c #828282",
"c. c #8B8B8A",
"v. c #888688",
"b. c #97918B",
"n. c #8E9193",
"m. c #829A9C",
"M. c #9B9E9D",
"N. c #979595",
"B. c #8E8F93",
"V. c #AB908A",
"C. c #9EA09F",
"Z. c #A1A19D",
"A. c #BCA496",
"S. c #9B9DA3",
"D. c #8798AF",
"F. c #9CA1A1",
"G. c #93ABA1",
"H. c #9AA6B1",
"J. c #ADADAD",
"K. c #A4A6A5",
"L. c #B3B3B6",
"P. c #BCBCBC",
"I. c #B8B8B7",
"U. c #ADAEB2",
"Y. c #CD8E8D",
"T. c #E88F8B",
"R. c #D7B7AA",
"E. c #C1BFBE",
"W. c #D0BAAC",
"Q. c #E2AAA6",
"!. c #EFB5A8",
"~. c #A8D8AA",
"^. c #A4C5A3",
"/. c #C2C1BF",
"(. c #E7CABB",
"). c #F3C7B8",
"_. c #F6D3BB",
"`. c #F7DAAF",
"'. c #849FC3",
"]. c #AAAADA",
"[. c #B8B7C3",
"{. c #9CABFD",
"}. c #97B2FF",
"|. c #BAC0C4",
" X c #A9DBC6",
".X c #BED2E9",
"XX c #B7F0E0",
"oX c #C4C4C4",
"OX c #CBCBCB",
"+X c #C8C9C8",
"@X c #D3D4D4",
"#X c #D9D9DA",
"$X c #D6D8D8",
"%X c #CACDDB",
"&X c #FDDECB",
"*X c #F8D4C3",
"=X c #F4D9CD",
"-X c #DEE0DF",
";X c #FDE0CD",
":X c #FDE2D2",
">X c #FEEBDE",
",X c #D2D3FC",
"<X c #DEE1E1",
"1X c #D3E1F1",
"2X c #E6E7E7",
"3X c #EBEEF0",
"4X c #E7EAF0",
"5X c #F3F4F4",
"6X c #F6F8F9",
"7X c #FDFFFF",
"8X c #FCFEFE",
"9X c #FEFFFF",
"0X c #FEFEFF",
"qX c #FCFDFD",
"wX c #FDFFFF",
"eX c #F6F6F8",
"rX c #F8F0E9",
/* pixels */
"                                                                                                                                ",
"                                                                                                                                ",
"                                                                                                                                ",
"                                                                                                                                ",
"                                                                                                                                ",
"                                                                                                                                ",
"                                                                                                                                ",
"                                                                                                                                ",
"                                                                                                                                ",
"                                                                                                                                ",
"                                                O N P R J.J.J.J.J.R a c #                                                       ",
"                                            . # 9 +X@X#X9XP.P.P.P.N.R v.b.N.x.w                                                 ",
"                                          2 9X9X9X9X9X+X+XE.E./.oX+X+X4X9X9X9X9XeXn.  .                                         ",
"                                      V 9X9X9X9X9X2X$XL.J.9X9X9X9X9X9X9X9X9X9X9X9X9X9XB X                                       ",
"                                  V +X9X9X9X9X9X9XZ.K.9X9X9X9X9X9X9X9X9X9X9X9X9X9X9X9X9X9X#                                     ",
"                                K @X9X9X9X9X9X9Xc.9X9X9X9X9X9X9X9X9X9X9X9X9X9X9X9X9X9X9X9X9X2                                   ",
"                              E #XqX9X9X9X9X9X9X9X9X9X9X9X9X9X9X9X9X9X9X9X9X9X9X9X9X9X9X9X9X9XX                                 ",
"                              R <X9X9X9X9X9X9X9X9X9X9X9X9X9X9X9X9X9X9X9X9X9X9X9X9X9X9X9X9X9X9X9X                                ",
"                              R <X9X9X9X9X9X9X9X9X9X9X9X9X9X9X9X9X9X9X9X9X9X9X9X9X9X9X9X9X9X9X9Xb                               ",
"                            V M.+X9X9X9X9X9X9X9X9X9X9X9X9X9X9X9X9X9X9X9X9X9X9X9X9X9X9X9X9X9X9X9X9XE                             ",
"                          N Z.M.J.-X9X9X9X9X9X9X9X9X9X9X9X9X9X9X9X9X9X9X9X9X9X9X9X9X9X9X9X9X9X9X9XE                             ",
"                          N M.M.M.I.5XOX9X9X9X9X9X9X9X9X9X9X9X9X9X9X9X9X9X9X9X9X9X9X9X9X9X9X9X9X9X9X9X                          ",
"                        # Z.M.M.M.M.@XI.9X9X9X9X9X9X9X9X9X9X9X9X9X9X9X9XOXOXP.L.L.L.L.L.L.L.V V h 6 6                           ",
"                        # M.M.M.M.M.x.9X9X9X9X9X9X9X9X9X9X9X9X9X9X9XB V 4 4 5 3 3 3 3 3 3 5 @ % 8 8 h h                         ",
"                        # M.M.M.M.M.x.9X9X9X9X9X9X9X9X9XL.e e q e e 9 9 . . . . . . . . . . . X 5 l. Xq                         ",
"                      2 Z.M.M.M.M.M.v.9X9X9X9X6X6X6Xv.v.e . . . . . . . . . . . . . . . . . . . % l. X9                         ",
"                      2 M.M.M.M.M.M.9X9X9X9X9Xh q 8 $ $ o . . . . . . . . . . . . . . . . . . . - j.j.3X                        ",
"                      2 M.M.M.M.M.M.9X9XP G q q 8 @ . . . . . . . . . . . . . . . . R.a . . . . X < g.9X                        ",
"                      2 M.M.M.M.M.S.9X9Xq q q . . . . . . . . . . . . .  .. . . . . R.&Xm . . . . o g.6X#                       ",
"                      $ M.M.M.L m m b.3XH.3 3 8 % . . . . . . . . . . .  ., . . . . s *.| . . . . X g.5X$                       ",
"                      # M.M.I N./.oXc.@X9XL - q - . . . . . . . . . . p p + . . . U &X&XV.. . . . X g.5X$                       ",
"                      # C.M.a 3X9X9X5XU.@X9Xv.4 v . . . . . . p . p Z V.a . . . m :XW.. + @.. . . . g.3Xw                       ",
"                        M.M.b #X9X9X9X@XK.9X5X. K . . . . . . } . ) V.(.A.U +.!.*X&X. . . . . . . . g.3Xw                       ",
"                        S.M.b #XP.$X9X$XJ.9X5X. K . . . . . . 5 X # % V.).&X&X&X(.. 9X< N.} . . . % g.3Xw                       ",
"                        M.F.n OXP J.9XI.I 9X5X. K . . . . O . 5X< +.Y.Y.R.;X&X&X(.. X % 9X%.. . . h.h.3Xw                       ",
"                          K.b o J.6X9XI.W 9X5X. K . . . . #.. . @ $X9X>X&X&X&X&X*XF j 5X9X%.. . . h.h.3Xw                       ",
"                          F.c v.M.$X9X+Xn.9X5X. K . . . ..;X7.; 0.4X9X>X;X&X&X&X&X(.$.T.:X& . . . h.h.3Xw                       ",
"                          F.c c.M.@XI.P E 2Xb > K . . . #.;X;X;.T._.&X&X&X&X:XrX&X&X).).&X. . . Y h.h.3Xw                       ",
"                            b.M 9.M.I P +X#X. f D h . . & :X;X&X&X&X&X&X&X&X:X:XQ.&X&X&X&X. . . g.h.6X2                         ",
"                            P K.I a N B.+XL - f D J o . . . W.:X;X&X&X&X&X&X&X&XQ.&X&X&X&Xe . . M h.|.n.                        ",
"                              b C.M.M.F.K.. f 6 M D 3 X . . . . U ;X&X&X&X&X&X&X&X&X&X&XR.r . . M h.|.n.                        ",
"                              b F.M.F.|.2X$ 6 6 6 D h @ . . A &X&X&X&X&X&X&X&X).&X&X&X(. .+ . . - j.~..                         ",
"                                  M.M.9X9XT 3 h f M M - . . X o :X&X&X&X&X&.&.T.;X&X).X.& . . X 7 l.XX                          ",
"                                  F.M.9X9X9X# Y j 6 S g . . . . . . &X&X&X&X&X&X&X*Xo.& . . . 5 j.^.<                           ",
"                                  O C 9X9X9X9XS H j 6 6 ; . . . . #.#.;X&X&X&X&X&XO . . . . . 5 m.~.                            ",
"                                  3 O A b.9X9XU.F H 8.8.F g . . . # #.O.@.&X&Xg O h h e # . 0 g.m.d                             ",
"                                    . @ 1 '.9X9X9X1XD.8.7.v - . . . * #.@.$.e X . . e T z.j . d G.                              ",
"                                      . t X w.r.,X9X9X.Xz.B.9.M M ; . p p * - 5 7 7 X . . <.i.i.e.                              ",
"                                        + . t t l >.].9X9X,X3XU.[.S.x.x.,.,.% O O X t.p.p.p.2.:                                 ",
"                                            $ . ^ { | :.3.f.%X].{.{.{.}.a.a.4.5.y.u.d.5.. . = !                                 ",
"                                                B . y [ [ / z l q.q.d.d.d.s.y.1.1.:.k 0.`.-./                                   ",
"                                                      . . = [ ' / =._.:X:X6.x ( ( ( ] ~ Q . o B                                 ",
"                                                              o # O ^ _ ] ` ` i u u . . .                                       ",
"                                                                    # . . . . w w w                                             ",
"                                                                                                                                ",
"                                                                                                                                ",
"                                                                                                                                ",
"                                                                                                                                ",
"                                                                                                                                ",
"                                                                                                                                ",
"                                                                                                                                ",
"                                                                                                                                ",
"                                                                                                                                ",
"                                                                                                                                "
};
