/* XPM */
static char *df0424c641564ad9dd550bd8f31fb6eegaacc3cMitnB4fgR[] = {
/* columns rows colors chars-per-pixel */
"64 64 237 2 ",
"   c #000000",
".  c #0A0604",
"X  c #0E0804",
"o  c #100704",
"O  c #140A04",
"+  c #1B0C04",
"@  c #1E1007",
"#  c #240E05",
"$  c #250E07",
"%  c #271307",
"&  c #2C1A0D",
"*  c #3B1906",
"=  c #341D0D",
"-  c #391E0E",
";  c #341E10",
":  c #37200E",
">  c #3A220E",
",  c #3C2411",
"<  c #3A2514",
"1  c #441C06",
"2  c #4C1B04",
"3  c #501E04",
"4  c #48250D",
"5  c #59290A",
"6  c #5E320C",
"7  c #422612",
"8  c #452A14",
"9  c #4B2C14",
"0  c #442E19",
"q  c #4B2E18",
"w  c #522D14",
"e  c #4D3116",
"r  c #45311A",
"t  c #4C321A",
"y  c #543316",
"u  c #5A3516",
"i  c #5E3816",
"p  c #53341A",
"a  c #5A351A",
"s  c #56391C",
"d  c #5C3B1B",
"f  c #6A340A",
"g  c #77390E",
"h  c #613515",
"j  c #653818",
"k  c #623D1B",
"l  c #6B3D1C",
"z  c #473725",
"x  c #493722",
"c  c #543C23",
"v  c #5B3E21",
"b  c #513C28",
"n  c #623D21",
"m  c #6B3E20",
"M  c #5E401D",
"N  c #7A400B",
"B  c #65411D",
"V  c #6B431D",
"C  c #6B481F",
"Z  c #734217",
"A  c #71441D",
"S  c #74491D",
"D  c #7A481B",
"F  c #5C4225",
"G  c #56412B",
"H  c #5B4428",
"J  c #5C452A",
"K  c #584634",
"L  c #634424",
"P  c #6B4422",
"I  c #644926",
"U  c #6D4923",
"Y  c #68472B",
"T  c #644A2C",
"R  c #6B4D2C",
"E  c #724523",
"W  c #744B23",
"Q  c #794825",
"!  c #7A4C24",
"~  c #744D2A",
"^  c #6E512E",
"/  c #755127",
"(  c #7C5225",
")  c #75532D",
"_  c #7C532C",
"`  c #644C33",
"'  c #6B4E33",
"]  c #664F3A",
"[  c #675036",
"{  c #6C5134",
"}  c #6D543B",
"|  c #745532",
" . c #7B5531",
".. c #775836",
"X. c #7C5A34",
"o. c #73563B",
"O. c #795738",
"+. c #75593C",
"@. c #7C5C3B",
"#. c #7E6135",
"$. c #7F613E",
"%. c #725740",
"&. c #765A41",
"*. c #7B5E42",
"=. c #7E6143",
"-. c #7E6349",
";. c #864D17",
":. c #8A4E15",
">. c #814D23",
",. c #835525",
"<. c #8A5326",
"1. c #845926",
"2. c #82532A",
"3. c #8D542B",
"4. c #84592C",
"5. c #8A5B2D",
"6. c #92572A",
"7. c #925B2C",
"8. c #835C33",
"9. c #8C5C32",
"0. c #825E3A",
"q. c #8B5D38",
"w. c #935C33",
"e. c #97652F",
"r. c #976A2E",
"t. c #846036",
"y. c #8C6436",
"u. c #84623C",
"i. c #8A653C",
"p. c #8D693D",
"a. c #926534",
"s. c #9A6935",
"d. c #966838",
"f. c #936B3D",
"g. c #9A6D3C",
"h. c #94703F",
"j. c #9C713D",
"k. c #A0632F",
"l. c #A56B38",
"z. c #A3733D",
"x. c #AA763A",
"c. c #AC7B3F",
"v. c #B5793D",
"b. c #805F40",
"n. c #846443",
"m. c #8A6641",
"M. c #8D6943",
"N. c #846749",
"B. c #8B6B4A",
"V. c #936D43",
"C. c #996E42",
"Z. c #936E49",
"A. c #967145",
"S. c #9B7244",
"D. c #96714B",
"F. c #9C754A",
"G. c #9D794A",
"H. c #947652",
"J. c #9A7651",
"K. c #9D7951",
"L. c #AC6B40",
"P. c #A27644",
"I. c #AC7342",
"U. c #A47945",
"Y. c #AB7C45",
"T. c #A17749",
"R. c #A37A4B",
"E. c #AB7D4B",
"W. c #B17F44",
"Q. c #B77E49",
"!. c #A47B52",
"~. c #AA7E52",
"^. c #A77F59",
"/. c #B6813F",
"(. c #9F8151",
"). c #AD814B",
"_. c #B38245",
"`. c #BA8345",
"'. c #BD8947",
"]. c #B4834B",
"[. c #BA864C",
"{. c #BD894D",
"}. c #A78256",
"|. c #AC8152",
" X c #B38552",
".X c #BA8751",
"XX c #B78A53",
"oX c #BC8B53",
"OX c #B3885C",
"+X c #BA8D5B",
"@X c #B7985C",
"#X c #A88E68",
"$X c #B68B61",
"%X c #A9916C",
"&X c #BA9D65",
"*X c #B8A77D",
"=X c #C38C4D",
"-X c #C98F4D",
";X c #CC934E",
":X c #C9954D",
">X c #D2954E",
",X c #C28D52",
"<X c #C88F51",
"1X c #C59153",
"2X c #CB9353",
"3X c #C89A57",
"4X c #C5925A",
"5X c #CC9559",
"6X c #CD995D",
"7X c #D29653",
"8X c #D49A55",
"9X c #DB9D55",
"0X c #D09758",
"qX c #D49B5B",
"wX c #DB9E5A",
"eX c #DBA358",
"rX c #DDA15B",
"tX c #E3A356",
"yX c #E3A45B",
"uX c #E8A859",
"iX c #EBAA5D",
"pX c #F0AE5C",
"aX c #F4B25B",
"sX c #F8B85E",
"dX c #C79763",
"fX c #D39B61",
"gX c #C89E72",
"hX c #C4A96A",
"jX c #DCA262",
"kX c #C1AD70",
"lX c #E3A661",
"zX c #E8AA64",
"xX c #F2AE62",
"cX c #F3B263",
"vX c #FABA65",
"bX c #FFC669",
"nX c #C4B681",
/* pixels */
"2X{.{.<XwXjX5XoX8XaXaXpXsXuXaXR v.'.Y.g.W.=XuX>X2XyX1X1XrXzXlX2X4X4XqXjXjX5X2X8XyXyX2X[.1XrXxXvX`.1X8X;X2X[.{.tXyXcXyX8XwXrXwXiX",
"{.W.-X2X2X9XcXvXtXbXvXsXaXtX;X;XR Y.{.=Xc.c.>X9X9X7XU.[.].qXqX,XqX5X5X6X0X2X2X2XyXiX{.[.W.].jXzXY.T f.=X{.2X1X,XrX9XrX9XwX9X9XyX",
"{.Y.{.2X2X7X2XuX9XvXsXiX9XeX{.P.7XS.uX:Xx.'.[.`.uX0X[.].,X0X2X{.qX0X,X].R.,X5X0XrX5X@.t.U.f.5XrX9Xt.X.Y.2X9X9X9X8X9XwX7XrXwX8X8X",
"-X{.{.2X2X8X;X;X2X8X8X>X;X-X-Xy._.eXvX:X8.8.| -XyX7X2X2XwXqX2X,X0X1X).). X4X5X0XqXwX,X| | P.0XwX=X{.f.W.9XyX2X7X9XwXwX2X9XrXwX7X",
"Y.{.-X7X2X=X=X2X;X-X2X;X=XU.i._.;XvXcX9X8.8.y.tXlXz.[.{.2X0X2X2X2X{.Y.U..X5X1X1X4XfXqXE.R | ,X{.| X.Y.2X=X2XyXY.9XwX-X_.2XwX8X9X",
"_.].=X2X2X{.P.{.-X2X0X2X1XY.0.2XcXyX2X[.Y.=X;XtX8X-X_.P.{.2X2X<X{.E.Y.P.1X2X,XoX.X6XfX4XU.M..X XS._.2X2X=X8XY.d.P.Y.[._.=X8X8XuX",
"2XY.-X1X2X2X[.].P.P.P.8.0.t.2XiXaX2Xf.Y.[.9XeXP.X.0X0XoX2X2X2X2X].S.wXqX1X1X1X,XoX,X5X4XoXXXoX2X0X<Xj.<X2XqX2X0X2X2X].j.[.7XyX_.",
"[.[.,X[.[.2X[.I y.j.[.E.S.2XiXiX9X0X{.,X<XS.2X_.=XwX<XY.2X2X5X0X,XoXyXyXyXqX2X,XoXoX4X4X4XoXoX5X2X1XP.2X2X0X9XyXyX{.-X2X;X7X2Xi.",
"].]._._.].].j.g.R L y.9XiXvX9XuXg.u.P.-Xg.J ,Xy..X| =X2X2X2X1X0X[.oX[.2X].E.2X1X,XoX X|.).XXoX,X5X,XY.E.<X=X1X{.[.-X2X9X7X{.[.z.",
"i.U._.[.,X,X{.=XwXyX[.d.8XwX9Xg.E.E.E.i.,X].Y.].,XrX2X    5X1X        zX[.f.E.[.oX X~.F.|.oXXXoX4X5X].R.,X,X1X[._.[.Y.Y.].Y.Y.S.",
"_.S.S.E.2XyX-X8X;X7XY.Y.=X2X2Xi.5XlXqXW.E.Y._.U.,X    p y     a 9 9 q           ).E. X~. X|. X.X4X5X].p.oXE.U.X.c U.=X{.X.c c s ",
"oXS.P.j.-XiXpX'.S.=X_.8XuXU.S.S.qXwX,XE.].0X      s d A Q >.w.v.l.C.q.w.2.P p t     oX X X XoX XoX4X).0.p.R G @.@.| | X.t.f.g.y.",
"S.U.Y.].[.2XtXj.[._.E.1XiXX...P.0X2X).).).  n w.P.M._ ! Q w.Q.Q.fXgX|.V.a.p.) v P y     .XE. Xm..X1X,Xt.H f.S..X].i.8.0.=X7XyX9X",
"S.T.S.).0XqXwX2X0.U.E.-X9XX.V.qXzX].S.    p 9.nX@XF.U._ n ~ L. ..X#Xq.p 9.d.5. .8.3.m 9   ).@.p.].1X2X[.S.W.oX{.Y.oXE.Y.[.7X8X_.",
"P. X)..X1XyXqX6X1XS.E.rXrXU.R.jXzX4X  w p  .}.kX).j.8.Y v v l a w.q.p 8 P E l E 9.d.8.n   @.h.].[.oX,XoX.X.Xy.f.S.,Xf.].{.].yX9X",
"XX@.|.dX2X<XS. XjXqXoXoXlX.XR  XjX  k l.3.I.p.g.a.L 9 a p F a 7 c ~ q 8 u h w j <.6.f.' q     ,XoX.X X].4XoXS.5Xp.| 1XS.p.{.W.wX",
"f.,X XX.1X2XS.M.V.~.4X6XqXU.P.m.    / eX[._ Q Y Y p 8 0 8 p t q p ~ p 8 a - 4 w j h E _ T 8 u     XX|.D.R V.T c ,X|.8.Y._.Y.-X].",
"S.u.+X5XoXS...=.` ` G.T.P.S.T.  n _ x.`.g.2.P t t 8 Y < , t 8 , , a : - 7 > 7 9 7 9 j Q Q n P _ P   V.F.m.M.T T T c V.,X9X2XU.9X",
"R T R. XE.V.@.*.' Z. XE.U.E.  p a._.`.a.d s Y ; , < p , 7 0 < 8 - , > , 7 8 t 8 - 4 y p L d 3.z.z.E   G.!.G.u.n.@.| S.E.,X,X].=X",
"` u.V.T.E.T.F.G.~.+XR.R.T.C.  l j.z.z.! a , a < - ; 8 7 7 9 9 9 = , = 7 9 9 7 7 - 8 7 : p a s s.=XI.s   @.m.*.@.M.{ S.P.Y.z.Y.8.",
"@.o.M.F.P.S.F.F.Z.!.R.F.V.  h P ~ 2.E a w 8 = , & 8 q B 9 d d B q q p u a 9 > : , = = , p t v L 2.x.4.  N.M.*.x } { T._.Y.c.=X .",
"` M.D.@.S.V.V.Z.Z.n.Z.V.  a 5.3.9.P 8 & 7 = % = a q P P ~ W ( P e 8 a y k u 8 < 7 - 8 7 8 8 t n >.a.| w   n.B.b N.G.R.R.P.g.-X`.",
"O.R.K.D.A.m.M.D.N.M.G.Z.  k g.<.k - 8 , % - @ & y d P d V B D W y p L k B B 7 8 y < , 8 , ; w ! W 9 d k   K %.*.} +XR.R.E.].rXY.",
"*.V.R.i...M.M.Z.!.~.E.R.  2.s.>.k 7 7 > h 7 % < d k l B V B A E B A P B k V d a s p 7 , 7 8 8 P E i l 8 8   B.z o.!.n.b T.2Xa.:X",
"*.N.F.M.m.M.M.m.G.R.R.  d 9.s.Y p ! s 8 & > 8 8 a u V B W W A l W A ( B D S u s s B 9 , 9 < , d i 9 a 8   M.+.n.G 4X+XS.P.8X;X;X",
"o.N.Z.M.K.G.m.M.F.F.m.  a._.<.P = p W , > > , 9 k B W u ( ( d i d Z W B V k l y B d k 8 , = , s v k d V >   @.n.T p.T.[.y.{.7X=X",
"H.*.Z.~.~.G.K.F.R.T.  d g.c.<.W = - 8 , y p e y a D 5.V B W k ( B V A V B k V k k B u 8 > , , 7 d E g.v.s.P   B...| p.p.y.=X_.=X",
"n.B.n.F.!.R.F.V.T.S.S.  / x.7.4.W 8 q 9 y s k P i V S D k ;.:.;.N :.;.,.,.C l V l l p 9 , , 7 , q Y y.l./.E   0.{ | f.p._.7XU.7X",
"' N.Z.D.F.F.u.| p.M.V.  r f.2.F 0 , 7 8 y s k W / W D <.D g g 2 3 1 3 Z 7.V V B A k d p e 8 7 , 7 t 9.l.x.l   @.u.E.1X{.Y.t.S._.",
"@.M.J.F.m.@.u.p.u.p.p.  < k p q 8 - & : 7 a u V k k W Z f 2 # + O + # 1 >.Z ! W V S i k k 9 8 , 7 8 n 9.k.w   B.M.F.P.[.g.X.[.W.",
"=.M.D.V.m.n.V.5XS.V.  9 8 p , q > > = , 8 y V A D V S h 4 + + o o o O + 4 k 4.W S ,.V ! W y p 7 9 a m l.l.j   B.V.R._.{.z.=X1Xx.",
"=.n.m.A.V.V.R.).T.P.  y s = 7 n B w 9 u V P P B d d j 5 # + o . . . X O * 9 P B ( U B d s 9 > - 9 a Q x.l.m   n.R. XU.Y.8XX.L V ",
"D.Z.F.F.S.F.F.E. X).  q F 7 m c s p y u d k d k B ! 6 5 # O .       X O # y ( ( 1.B B q 9 q > 7 8 y ! _.Y.2.  -.M.T.].{.{.y.>X8.",
"Z.G.R.T.F.F.V.T.P.E.  L c a.~ L 9 7 8 k u P S D A S f 5 # o         . X # w B 1.W k k d s q - , , t q f.U.4.  *.Z.E.[.U.S.| Y.oX",
"V.S.F.F.F.F.T.P.C.S.  X.).s.v L 9 , > p s k B ( B e 9 5 + O .       . O # 7 ( ,.W B B ! d B 8 7 7 t p | S.Y   n.Z.E.[.E.].j.j.I ",
"A.A.S.S.F.F.S.C.u.E.  | &X8._ 8.p 7 7 9 8 a ,.5.d d i h * + o O X X o O % 1.W 1.L d k k u u u q 8 8 P S.S.L   B.V.~..XU.W.Y.p. .",
"V.V.S.F.m.m.S.V.P.T.  T A.A.4.L s > - 8 p p W W k S 1.V 6 - + + + O + 4 9 D D P k u P V W d i y w u 2.P.9.c   B.Z.!. XU.P.qX2X`.",
"A.S.V.V.V.F.T.S.P.V.  t A.z.a q p 9 w B ,.,.a I h B S e Z A 6 5 1 4 7 W a./ W k k a k k y q - 7 w k a.g.~ <   B.D.R.|.].R.E.2XP.",
"F.T.S.C.F.S.| V.C.V.p.  U 2.q p 8 > 9 p W d W 4.r.1.M B 1.W V f u Z _ r./ B k W V B y P > < = > 9 y 8._ d   Z.n.M.F.|.2X_.U.qX,X",
"E.E.T.S.S.' c V.V.f.f.  8 Y n q p 8 , y P 9 d y V / S D B k ~ V ,./ P U d B a B B u a s a 9 8 9 4 u Y E B   } J.M.D.F.].8X2XC.zX",
"p.0.@.R c T c V.S.F.S.S.  8 < t q 9 9 8 q y 9 d 1.,.! W / d d a P B a B k W B B A 9 u s y e 9 h h P 8 l q N.N.Z.B.D.V.C..X0X.X[.",
"X.c T u.g.u.f.M.S.T.A.C.S.  8 : 9 = : 9 B q u l ( i / V k B d 9 d B V a d B A i W 9 e p y 9 > d W n a h   *.B.=.B.M.m.0.E.wXqX2X",
"p.u.F.|.T.D.T c J M.y.S.S.  d L p p 9 y a a l V y W W / k V B a V V B u >.V B i d u 7 > 7 p p B 4.2.a   *.=.+.=.n.m.V.T..XlX2X].",
"V.V.F.S.M.m.M.t.m.X.{ @.@.  P  .d.j.8.l e p k i 9 y k d u k d V k B 9 y B W d e y u 8 , 7 a / 8.2.! 2.  N.n.=.=.=.n.S. X2XlXrXS.",
"S.V.f.S.V.p.M.F.F.u.@.H |   q P 9.%X(.U d q u p 9 w a p p > k k 9 s y 9 y d p 8 e 9 t t d Y ) f.Q a L   } *.B.=.*.*.F. XT.P._.j.",
"R.M.V.S.V.V.@.@.{ R.E. X,XS.    t.%XK.j.! l u y 4 l p e 8 7 e l u k 8 > 9 y t t 8 & 8 s ~ 8.P.2.A t   +.m.` K N.&.o.m.F.V.R | g.",
"V.S.p.V.f.@...H V.{ {.T.@.p.y.  U s.l.k.s.s.W B k p s d 8 = > w w , : > > p 7 8 e , , a ) ).XX7.8   { K.K.} } =.} o.*.M.S.R c I ",
"P.T.u.p.p.@.o.!.' m.@.V.t.T ..@.  B  .F.&X3Xj./ n w U a 8 > 8 y q 7 : , > > 7 < p s U f.).G.! p   K.[ N.m.N.n.*.&.} +.u.F.E.J T ",
"' F.@.@.A.u.` n.+X X .C.E.) V.S.S.  a Z.*XhX3Xy._ e.B u q a v a k q 7 , > - , s U _ g.].g.a     OX}.F.B.m.u.N.} =.*.&.*.V.E.u.t.",
"| @...b G @.|.F.|.A.2X1XS.^ S..X].V.    #.U.hXz.j.P.) s L F I F W B k s t 0 c 0.)._.8.k w   $X|.!.B.D.B.@.N.n.n.B.n.*.+.M.T.].0.",
"z ` @.) f.V.M.@.S.V.t.R.U.f.| F [.L H H   s a.s.c.y.) p.h.A.d.R d._ ~ v s t v f.3Xd.q y   Z.M.m.O.n.n.&.N.B.K.J.B.Z.=.} n.F.E.0.",
"J m.{ @.u.@.@.R X.@.S.F.R.| ..c R y.@.A.).      s t I u.p.U.y.) Q.7.a.~ s s 0 a d       m.m.n.n.$.u.n.B.N.!.$XOXO.} K ] @.M.G.V.",
"c S.u.A.V.` H F L ..@.V.U.u.M. ...1X_.E.oX@...R.          t 0 q ! 2.l a 8         M.M.M.M.m.n.N.u.u.u.M.!.dXdX+Xm.{ z K +.n.M.M.",
"J ~.E.R.R. XT c R V.@.F.oX[.V.R t.t.R.P.U...R p.t.p.f.t.                  F.T.V.V.M.V.M.V.V.V.m.m.p.V.K.4XdX}.F.!.~.b.*.*.n.m.u.",
"K.D.$.O.F.R.P.T J 0.S.V.p.y.f.V.V.J ..[.E.@.X.t.Y.X.X. .f.R H M.R.P.T.T.F.S.F.V.A.A.V.V.V.V.V.V.m.M.V.F.R.S.M.m.@.` M.M.0.0.n.m.",
"J.^.n.| *.!.!.!.x 0.p.| S.).P.E.i.8.R t.8.u.g.) P.u.U.U.Y.V.0...U.].U.).E.S.V.M.p.M.m.m.M.V.p.F.M.M.p.p.V.V.f.M.M.E.fX+XD.u.m.M.",
"G ] @.Z.N.@.F.M.@. XX.S...) V.i.X.R.V.^ | T H R 0.p.P.,X).U.X.T J | c c R T.F.V.V.V.V.M.V.V.V.C.C.V.M.p.u.u.H T V.A.R.R.F.V.u.u.",
"] ` &.H.J.+.+.+.M.!.Z...| p.P.P.| Y.g.S._.).K.J u.y.U.8XyXyXY.L | H X.T.X.t.M.R.S.M.M.V.p.V.V.V.V.p.....f.t.R.].S.u...@.' u.M.m.",
"} } } =.B.n.] Z.F.F.u.V.E.F.$.E.F.P.j.X.g.p..XX.J @.f.[.0X,XX.| | f.).S.E.u.t.V.R.p.M.M.V.V.V.V.p.t.M.M.V.T.5X2Xu.y.u.R i...u.m.",
"} *.} ] %.+.*.@.@.F.m.V.|.V.u.E.S.V.f.d.S.y.P.P.^ 0.f.p.C.U.C.u.u. X,X]. Xf.@.V.T.V.V.V.V.m.0.V.S.S.V.V.S.F.f.y.....0.f.M.| m.V.",
"=.K.Z.%.K &.B.' T @.M.@.u.| ..y.V.u.| f.S.y.2XlXu.0.f.p.u.f.T.E.P..XwXlX].V.p.V.M.V.V.M.p.m.S.S.V.C.V.p.V.S.V.t._.E.V.S.E.@.p.M.",
"N.B.*.G G -.B.@.M.{ @.@.R T S.P.E.p.R.p.| ) ..X.u.u.f.f.u.u.S.].0X5X].].V.u.V.V.V.V.V.M.p.p.S.V.M.p.M.p.V.V.u.p.oX0XF.f.M.O.m.@.",
"K ] ] x G } N.!.$X} J @.R.T.).R.,X@.f.f.u.4.8.{ H ..f.f.p.p.C.u.S.S.f.p.u.p.V.V.p.u.M.M.p.p.t.u.m.M.u.m.$.0.p.R. .| ) ..u.O.u.@.",
"N.b ` { B.` z b B.O.' O.|.E.].|.[.E.p.8.y.z.S.L S.| 0.i.y.p.X.R.p.t.u.u.y.V.A.p.V.V.@.@.p.M.u.m.D.p.m.u.A.V.p.p.u.{ x r H J y.@."
};
