/* XPM */
static char *_9f7845205134174f69bbba8809fb12fqktVuf6ES9kQAbvs[] = {
/* columns rows colors chars-per-pixel */
"32 32 5 1 ",
"  c None",
". c black",
"X c red",
"o c #66DF00",
"O c white",
/* pixels */
"                                ",
"                                ",
"                                ",
"                                ",
"                                ",
"                                ",
"               oo               ",
"             oooooo             ",
"           ..XooooX..           ",
"          .XXXXooXXXX.          ",
"         .XXXXXXXXXXXX.         ",
"        .XXXXXXXXXXXOXX.        ",
"        .XXOXXXXXXXXXXX.        ",
"       .XXXXXXXXXXXXXXXX.       ",
"       .XXXXXOXXXOXXXXXX.       ",
"       .XXXXXXXXXXXXXXXX.       ",
"       .XXXXXXXXXXXXXXOX.       ",
"       .XXXXXXXOXXXXXXXX.       ",
"       .XXXXXXXXXXXXXXXX.       ",
"        .XXOXXXXXXOXXXX.        ",
"        .XXXXXXXXXXXXXX.        ",
"         .XXXXXXXXXXXX.         ",
"         ..XXXOXXXXXX.          ",
"          .XXXXXXXXXO.          ",
"          .XXXXXXXXXX.          ",
"           .XXXXOXXX.           ",
"           .XXXXXXXX.           ",
"            ...XX...            ",
"               ..               ",
"                                ",
"                                ",
"                                "
};
