/* XPM */
static char *b4b71637768f4061af082d5213a73f49Ig4oCIJqF8d90rXM[] = {
/* columns rows colors chars-per-pixel */
"64 64 202 2 ",
"   c None",
".  c #16140E",
"X  c #151514",
"o  c #1B1914",
"O  c #161718",
"+  c #16191B",
"@  c #1B1C1C",
"#  c #181717",
"$  c #0D0A05",
"%  c #221F19",
"&  c #22211E",
"*  c #28251D",
"=  c #1D1E22",
"-  c #1F2022",
";  c #232323",
":  c #282725",
">  c #272827",
",  c #2A2926",
"<  c #24262A",
"1  c #27282C",
"2  c #2B2B2C",
"3  c #302E2D",
"4  c #2C302C",
"5  c #31302D",
"6  c #39362F",
"7  c #2C2E31",
"8  c #272B34",
"9  c #302E32",
"0  c #2F3133",
"q  c #2D313C",
"w  c #333334",
"e  c #383735",
"r  c #3A3936",
"t  c #34353A",
"y  c #37383C",
"u  c #3B3B3D",
"i  c #43413D",
"p  c #363A42",
"a  c #3C3E42",
"s  c #313640",
"d  c #2B3341",
"f  c #3F4044",
"g  c #3E424B",
"h  c #3D4452",
"j  c #3D5461",
"k  c #424345",
"l  c #494744",
"z  c #4D4A45",
"x  c #44464A",
"c  c #47484C",
"v  c #4A4B4D",
"b  c #524F4A",
"n  c #534F44",
"m  c #55524D",
"M  c #57544C",
"N  c #444A52",
"B  c #4C4D51",
"V  c #494E5A",
"C  c #454B57",
"Z  c #4F5054",
"A  c #4D535C",
"S  c #535454",
"D  c #5A5652",
"F  c #5A5955",
"G  c #54565A",
"H  c #57585B",
"J  c #5B5B5C",
"K  c #605C56",
"L  c #5F605F",
"P  c #63615D",
"I  c #6E7059",
"U  c #4E5664",
"Y  c #545962",
"T  c #5C5E61",
"R  c #565E6B",
"E  c #595F6B",
"W  c #525762",
"Q  c #5E6164",
"!  c #5E6269",
"~  c #5E6571",
"^  c #4F6376",
"/  c #626263",
"(  c #6C6963",
")  c #64666A",
"_  c #66686C",
"`  c #6A6B6D",
"'  c #686560",
"]  c #706F6A",
"[  c #636A75",
"{  c #6D6E71",
"}  c #676D78",
"|  c #6E7173",
" . c #6E737C",
".. c #727375",
"X. c #74767A",
"o. c #76797D",
"O. c #7A7C7D",
"+. c #787875",
"@. c #6D756E",
"#. c #827E7B",
"$. c #85827E",
"%. c #477788",
"&. c #697485",
"*. c #6C7787",
"=. c #707682",
"-. c #767C84",
";. c #7B7E82",
":. c #747C8A",
">. c #787F8D",
",. c #797F94",
"<. c #677B98",
"1. c #5A8497",
"2. c #7D8084",
"3. c #7E8289",
"4. c #7C8392",
"5. c #678BAD",
"6. c #828385",
"7. c #888681",
"8. c #83868A",
"9. c #85898D",
"0. c #8A8B8D",
"q. c #898789",
"w. c #8F918F",
"e. c #94928A",
"r. c #828993",
"t. c #8B8E91",
"y. c #898A99",
"u. c #8E9194",
"i. c #8C939B",
"p. c #929395",
"a. c #989693",
"s. c #939699",
"d. c #96999D",
"f. c #9A9B9D",
"g. c #979996",
"h. c #A19E99",
"j. c #A09D97",
"k. c #A2A19C",
"l. c #8D94A1",
"z. c #8399AE",
"x. c #9097A2",
"c. c #979DA4",
"v. c #9C9EA2",
"b. c #989FA8",
"n. c #979EA9",
"m. c #9EA1A5",
"M. c #9CA2AC",
"N. c #9BA5B2",
"B. c #A2A3A5",
"V. c #A8A7A3",
"C. c #ACABA6",
"Z. c #A3A6AA",
"A. c #A6A9AD",
"S. c #AAABAD",
"D. c #AFB1AF",
"F. c #B2B1AC",
"G. c #A5ABB4",
"H. c #ABAEB2",
"J. c #A2A7B0",
"K. c #ADB0B3",
"L. c #ADB1B4",
"P. c #AFB3B6",
"I. c #AEB1B5",
"U. c #AEB1B6",
"Y. c #ADB2BA",
"T. c #B0B4B7",
"R. c #B3B3B3",
"E. c #BABAB6",
"W. c #B0B3B8",
"Q. c #B1B4B9",
"!. c #B2B5BA",
"~. c #B3B6BB",
"^. c #B1B6B9",
"/. c #B2B5BA",
"(. c #B6B9BE",
"). c #B5B8BD",
"_. c #BDBDBB",
"`. c #B8B6B0",
"'. c #B2AEA9",
"]. c #C0BFBD",
"[. c #C1C1BE",
"{. c #AEB7C3",
"}. c #B5BCC4",
"|. c #BABEC4",
" X c #B8BFC9",
".X c #B3BAC8",
"XX c #B1B9D0",
"oX c #BEC1C6",
"OX c #BDC1C6",
"+X c #BCC2C9",
"@X c #B6C2CD",
"#X c #AFC6CC",
"$X c #C3C3C2",
"%X c #C2C4C9",
"&X c #CAC9C9",
"*X c #D1CFCB",
"=X c #D2D1CE",
"-X c #CACED2",
";X c #C7CBD0",
":X c #D5D4D1",
">X c #D5D7DD",
",X c #CED8D2",
/* pixels */
"                                                                                                                                ",
"                                                                                                                                ",
"                                                                                                                                ",
"                                                                                                                                ",
"                                                                                                                                ",
"    O.S.H.H.S.S.B.B.B.A.H.S.H.A.B.H.H.H.H.H.H.H.H.I.H.K.H.H.H.I.H.A.H.S.I.K.I.I.I.A.I.I.I.W.I.I.Y.H.W.W.W.H.Q.H.Q.Q.m.W.(.A.    ",
"    0.H.S.H.S.H.Z.S.A.K.H.K.H.S.H.H.S.H.K.K.H.H.H.K.H.I.I.H.I.H.H.I.I.I.I.I.T.I.Q.I.A.Q.Q.Q.I.W.I.H.Q.Q.I.H.Q.I.Q.~.(.Q.Q.G.    ",
"    w.H.H.H.H.H.A.S.B.Z.H.S.H.H.H.H.I.H.A.H.H.Z.I.I.K.I.I.K.H.A.H.I.I.I.I.I.H.Q.T.Q.I.Q.Q.~.Q.Q.Q.Q.I.Q.Q.Q.Q.W.W.(.Z.(.(.m.    ",
"    f.H.S.K.S.H.S.A.H.S.H.A.H.H.H.I.H.H.I.K.H.H.I.H.I.I.I.K.H.I.I.T.I.I.I.I.T.Q.Q.m.I.Q.I.Q.Q.W.W.Q.I.I.Q.Q.Q.(.(.(.(.}.(.v.    ",
"    R.H.S.H.H.H.S.S.S.B.S.9.Z.S.H.S.H.H.H.H.H.H.H.H.S.Z.H.H.I.I.I.T.I.H.K.I.Z.I.T.I.I.I.I.I.W.I.I.H.Z.Q.Z.I.Q.Q.(.(.(.(.(.Q.    ",
"    :Xf.f.f.v.m.~ X.0.0.d.f.d.f.f.f.f.m.v.m.v.f.v.f.s.s.d.s.d.s.v.f.s.s.s.s.f.v.Z.Z.v.d.s.u.u.s.s.u.p.p.p.s.6.z Z.m.m.Z.Z.Y.    ",
"      _.$XE.E.m.i.! B y w t w w w t 0 t k 6.B.f./ t e w t 2 t 7 7 7 0 w 7 t y H s.m.2.x t w w 2 2 7 0 w w k J ' _.%X%X|.oX      ",
"      E.[._.$XE.d.k 1 w w t e w e e t y y B / m._                             v.t.J v 2 2 2 1 2 2 2 2 2 2 < k B.(.OX%XOX+X      ",
"      F._.$X_.[.i.= F B k k k k k x f f B B ..| {                             X./ ) k y B x k c v c c x c c ; u.|.OXOXOX X      ",
"        [._.[.E.u.2 e $.2 2 ; ; = ; = ; B B ) O.X.) / _ / ) / / J / S J H H J / ) H u k c x B G G Z B B G N - ;.OXOXOX+X-X      ",
"        ].[.[._.R.w k n ; ; ; w w w e y a a H / ) ` ) ) ` ` ) ) _ / x S H T T J S v e 3 ; @ @ # ; ; ; ; < N < 8.OX|.|. X        ",
"        _.[.[.[._.O.k r / P / / / / / / < y k B x J J T ..X.{ Q T / { { T J H y u f e u X , 2 # z / / / 7 f H (.OXOXOX}.        ",
"        [.$XE.$XE.d.f J P / / / ) / / F @ u 7.X.X.8.8.t.0.0.0.0.0.0.0.0.0.0.6.O.` ;.f S : S 2 @ ..) ) ) p k 9.(.OXOXOX X        ",
"          $X[.[._.i.N J J ) P J P / / J S P /                                     / c u ; @ = @ p./ / / < 2 p.OXOXOX%X>X        ",
"          $X[.[.[.Z.W _ X.....X.o.X.{ L S S J a.'.p.s.p.9.u.t.s.s.8.p.t.9.s.t.n.l.E B B G Y ! ) ! ) _ _ ! e g.OXOX%X(.          ",
"          _.].[._.E. .o.6.8.q.0.T ..S w 5 5 w w 2 2 2 2 2 1 2 2 2 2 2 1 < < ; < 1 < < 1 1 A | ) 9.8.8.{ O.y E.OX%XOX}.          ",
"            ]._._.E.p.0.f.k.f.0.J J u w t u u w 2 7 2 1 2 2 2 2 2 1 2 < < ; ; < 7 a a u 2 1 W ) i.m.Z.i.c.0.(.OXOXOX~.          ",
"            R.F.V.V._ C.V.B.p...P u p A ..;.O.{ v y y t w t w w t t w t w w w v { ;.;.X.S w 8 E X.c.G.M.N.[ J.Y.H.Y.            ",
"            v v k k r h.C.f.O.) z p y  .8.) Q Q J S ` ` / 8.8.G 8.r.9.r.| -.T J Q ) Q ;.X.v w 7 } ;.M.M.i.3.l.M.J.Y.            ",
"            S S S z e E.V.0.+.v y y H 9.i.w 7 2 2 7 6.2.X.m.d.B.Z.m.v.M.9.u.y 2 2 2 2 6.6./ e 2 0  .t.J.r.8.Y. XOX+X            ",
"            F S S l e V.k.O.v t R x { d.M.` _ ) / ) p.t.6.Z.A.H.Z.H.A.G.s.d._ ) _ / / p.p.| y l 2 0 4.b.c.8.|. XOX X            ",
"            m S S l e `.$.v y 1 ~ H 2.m.Z.Z.m.v.p.f.f.p.u.H.H.H.I.H.H.Y.v.m.m.m.B.v.d.p.s.6.a D 2 2 7 4.x.8.|.OX+X X            ",
"            $.2 3 5 2 k.D a 1 t N B X.9.Z.H.B.d.p.O.v.s.0.H.H.H.I.I.H.{.i.d.m.B.Z.v.p.f.6.H w i w ; 5 7 =...}.OX+XZ.            ",
"            m ; ; 2 2 F y 7 t p k J G | p.A.A.B.B.B.v.f.p.Z.I.I.Z.I.H.{.s.v.v.A.m.f.Z.O...e u a w 2 : w 2 ) }.OX+X X            ",
"            D @ : 3 $. .< g y a y x T B X.s.Z.S.B.B.m.d.p.Y.I.H.I.W.Z..Xm.Z.Z.Z.d.A.v.J y a k t w 2 r & D :.}. X+X X            ",
"            P w 5 e ( 2.1 N k k x a B ) B 2.9.Z.Z.B.m.f.p.I.Q.I.Q.Q.H. Xv.G.Z.s.S.0.` y k v k a t 2 r ; 2.*.Y. XOX~.            ",
"            P ; : e ' 2.7 N a x c v k B Q B O.s.B.S.s.s.p.H.I.W.Q.I.I. XZ.A.u.A.d.o.y k x k k f a e e ; 2.*.~.|.OX9.            ",
"            $.2 2 3 F 2.g V p a c B v f B Q B O.u.m.A.d.w.H.W.A.Q.Q.I.}.Z.I.H.v.| u x v z k x k y e r , ] &.~.}.OXH.            ",
"            7.; e 2 l v =.V p f x x B c k x T J X.B.Z.f.w.W.Q.Q.W.(.Z.+XH.I.H.9.k k v z c k f a u w r P < *.G.(.}.}.            ",
"            $.# @ ; r z c V t a k c x v x k x  ...B.Z.s.w.A.H.Q.Q.Q.W. XG.H.H.0.k v B v v k u y u 2 b 2 < *.M.G.G.b.            ",
"            e.; : 5 w ; k ~ t y x v c x B k v y...f.B.d.p.~.Q.~.Q.Q.I.+XH.H.H.8.a Z v x S v x f w : D ; O &.>.r.i.x.            ",
"            h.; : 2 : ; k [ k w x v B N v a B :.` u.Z.s.p.H.H.Q.Q.I.W.+XA.A.H.u.a v B k J S x x 2 r z : # < e y.' e.            ",
"            C.2 2 e & < k [ x t v B { N v f c l.` | 0.0./ G H T T H T {.m.Z.m.9.u v v x J o...k 2 r b ; # + 4 z.j N.            ",
"            C.2 5 w . 2 y [ x w B u.S g v a x 4.` X.X.{ x 9 w w 7 w 7 l.;.9.;.8.y v v k J B 0.S 2 r m ; # O 9 #.4 p.            ",
"            j.k l k $ ; t ~ f w c ;./ N B k v 4...f.p.{ z 7 2 7 2 2 8 N.A.B.m.9.u v B k S O...a 2 e m ; # + 2 ^ <.XX            ",
"            a.i y y . 2 r E k w c v ) N v k v -.| s.B.0.0.Y.I.I.~.c.Q. XH.I.A.0.a v v k S ` x f 2 e m ; + X 2 5.{ @X            ",
"            k.r u u o > 5 ! f w c v v N c f v } | m.A.f.t.Y.v.Q.Q.u.Q. XG.I.A.t.a v B k v v x k ; e M ; + X 2 XX#X+X            ",
"            h.u e r % ; w R p w y p a p c k x  .| u.Z.f.0.I.W.Q.Q.m.~. XH.H.Z.u.k v H k u a y t 2 5 m ; + X 2 q.I ,X            ",
"            7.J J m 6 > w R y y k v B x x x x G ..p.A.s.0.Y.H.I.W.v.Q. XA.I.H.8.k v T J v v z u 2 w D ; + + 2 %.1.@.            ",
"            &X*XE.F.i < 2 Y t a x v c a k f k J p.f.Z.s.9.S.W.I.H.t.Q. XA.I.H.S.| k B H S v x u 2 2 m ; + d = = 8  .            ",
"            =X=X[.C.5 ; : U y t x c k f k p / t.B.B.p.f.6.H.9.W.Q.Q.W.}.A.Z.Z.H.S...f v S S k u w 3 b ; + V k f V o.            ",
"          :X*X:XE.E._ < : U t y k f k f f Q o.s.Z.m.v.f.6.H.H.H.W.Q.I.{.A.H.m.Z.S.Z.| f c Z v u 2 2 b ; # A ` J S ` %X          ",
"          &X:X$X&X%Xr.< ; A w y a p p x Q 6.m.Z.m.B.f.p.o.H.I.H.Q.m.Q.Y.A.H.H.m.B.H.A.` u k Z a 2 2 z ; O @ k.J 6./ i.          ",
"          S.R.S.S.S.-.< ; V t k y f g Q 8.d.v.B.Z.B.v.p.2.Z.I.I.I.d.H.Y.A.H.H.A.m.p.S.Z.` a k u 2 : z ; X * t.6.9.Z.Z.          ",
"          :X$X%X$X(.-.2 ; C 0 y a k Q 8.s.m.B.m.B.m.f.p.O.H.I.I.I.u.W.Y.A.A.H.Z.Z.v.B.A.f.) y y 2 ; z ; X , [.-X;X-X;X          ",
"          A.R.S.S.Y.>.2 & h 7 y y Z O.v.m.m.m.v.f.v.p.9.X.Z.H.H.W.I.I.G.Z.Z.A.Z.S.B.f.Z.A.t.B r 2 ; l & X 5 R.OXOXOX~.          ",
"          E.p.9.f.Y.>.< @ h t y t c ` c.c.u.s.u.u.0.0.0.| A.I.H.I.I.Q.H.d.Z.d.f.s.d.p.p.f.{ x e 2 ; z @ X 6 F.|.%XOXOX          ",
"          [.H.R.K.H.:.< @ C t p t c J d.c.t 7 y w k ;.6.` Z.Z.H.H.H.I.G.m.v.e u y t y u.f...k e w ; 5 ; o r C.OXOX%X(.          ",
"          $XK.R.H.G.,.7 1 w w p t x J 3.y.;.o.O.o.6.2.O._ Z.;.H.2.u.A.M.d.d.u.9.8.2.8.q.0.` y e u ; ; w @ i F.OXOXOX|.          ",
"          [.K.H.S.H.,.< p t t y p f x -...-.;.;.;.2.;.{ J t.v.s.v.2.m.M.8.u.9.t.t.0.0.0.q.` w e e 2 @ o @ i B.OXOXOXOX          ",
"          $XH.H.S.M.4.t s t y t y p t ! ! ) _ ) H T / H k 9.3.9.9.8.t.i.| | ..` ` ..` ` ` v 2 e 2 ; @ X K n S.|.OXQ.|.          ",
"          [.S.S.A.M.4.q p t t y y p a k x f y t y p a f a Z G G G G G Y c k x v z k x z l k u u w 2 ; ; D m D.(.s.H.I.          ",
"          E.f.Z.m.X.>.= p _ k y a a k v B v v k z J 3.d.f.B.v.p.f.B.Z.v.] ( J G G H H H H Z v v x k Y Z X l v.H.v.t.Y.          ",
"                              ` F J J J J / / ..X.                            ( 6.;.{ _ { _ ) O.X.                              ",
"                                                                                                                                ",
"                                                                                                                                ",
"                                                                                                                                ",
"                                                                                                                                ",
"                                                                                                                                "
};
