/* XPM */
static char *d2564da884db4e75b7a23ceb8bf82d1bhgyiGUjgUVyBxgPR[] = {
/* columns rows colors chars-per-pixel */
"64 64 242 2 ",
"   c #000102",
".  c #050509",
"X  c #080708",
"o  c #0A0A0B",
"O  c #150A0B",
"+  c #0C0B12",
"@  c #131314",
"#  c #1A191C",
"$  c #2C1713",
"%  c #1A1B24",
"&  c #181836",
"*  c #281D26",
"=  c #1B2229",
"-  c #262729",
";  c #24242B",
":  c #2A2B39",
">  c #302F35",
",  c #322E39",
"<  c #33323C",
"1  c #383639",
"2  c #3D3D3D",
"3  c #62050B",
"4  c #452C0F",
"5  c #703A00",
"6  c #462728",
"7  c #483724",
"8  c #543D24",
"9  c #52392A",
"0  c #453B3B",
"q  c #3C493E",
"w  c #69471F",
"e  c #5B4226",
"r  c #57422A",
"t  c #5C452A",
"y  c #584634",
"u  c #634727",
"i  c #644A2C",
"p  c #6B4D2D",
"a  c #6E512E",
"s  c #74532E",
"d  c #644C33",
"f  c #6B4E33",
"g  c #664F3A",
"h  c #675036",
"j  c #6C5134",
"k  c #6D543B",
"l  c #745532",
"z  c #765736",
"x  c #7C5A34",
"c  c #75593C",
"v  c #7C5C3B",
"b  c #7F613E",
"n  c #2D2B40",
"m  c #383944",
"M  c #32394D",
"N  c #281A65",
"B  c #311B71",
"V  c #433E44",
"C  c #3F4550",
"Z  c #454344",
"A  c #5C4F4A",
"S  c #474955",
"D  c #575658",
"F  c #725740",
"G  c #755B42",
"H  c #7B5E42",
"J  c #7E6143",
"K  c #7D6249",
"L  c #6C625E",
"P  c #485169",
"I  c #5A5D6B",
"U  c #605F60",
"Y  c #5C6376",
"T  c #66676A",
"R  c #756C68",
"E  c #686E77",
"W  c #787878",
"Q  c #AA3000",
"!  c #C72D00",
"~  c #AC5003",
"^  c #B86607",
"/  c #8D5030",
"(  c #825D34",
")  c #825E3A",
"_  c #846036",
"`  c #8C6436",
"'  c #85623C",
"]  c #8A653C",
"[  c #8E683E",
"{  c #936938",
"}  c #936B3E",
"|  c #9A6D3D",
" . c #97703F",
".. c #9C713E",
"X. c #A6763D",
"o. c #E15E00",
"O. c #D66903",
"+. c #E87102",
"@. c #863F43",
"#. c #88524C",
"$. c #A85E5E",
"%. c #846443",
"&. c #8A6641",
"*. c #8D6943",
"=. c #85674A",
"-. c #8B6B4A",
";. c #936D43",
":. c #986F42",
">. c #926E4A",
",. c #967045",
"<. c #9B7244",
"1. c #96714B",
"2. c #9C754A",
"3. c #9F794E",
"4. c #8B6759",
"5. c #9A7751",
"6. c #A27644",
"7. c #A47845",
"8. c #AB7C45",
"9. c #A17749",
"0. c #A47A4B",
"q. c #AB7D4B",
"w. c #B17F44",
"e. c #B07F4A",
"r. c #A2665B",
"t. c #A47B51",
"y. c #AA7E52",
"u. c #A77F59",
"i. c #917975",
"p. c #AE6A69",
"a. c #B76867",
"s. c #CB7271",
"d. c #D98D0E",
"f. c #AE804C",
"g. c #B48146",
"h. c #BB8447",
"j. c #B4834B",
"k. c #BA864C",
"l. c #BD894D",
"z. c #AC8152",
"x. c #A98259",
"c. c #B38552",
"v. c #BA8751",
"b. c #BD8B53",
"n. c #B88A59",
"m. c #B68C61",
"M. c #C38C4D",
"N. c #C98F4D",
"B. c #CC934E",
"V. c #C9954D",
"C. c #D2954E",
"Z. c #C28D52",
"A. c #C88F51",
"S. c #C59153",
"D. c #CB9353",
"F. c #C5925A",
"G. c #CC9559",
"H. c #CD985B",
"J. c #D29654",
"K. c #D49A55",
"L. c #DB9D55",
"P. c #D09758",
"I. c #D49B5B",
"U. c #DB9E5A",
"Y. c #DEA155",
"T. c #DDA15B",
"R. c #E5A557",
"E. c #E3A45B",
"W. c #EBAA5D",
"Q. c #F0AE5C",
"!. c #F6B55D",
"~. c #C79763",
"^. c #D49D61",
"/. c #E6817F",
"(. c #DBA161",
"). c #E5A862",
"_. c #F2AE62",
"`. c #F7B764",
"'. c #FFC669",
"]. c #082C83",
"[. c #1E299C",
"{. c #232CA6",
"}. c #274CA2",
"|. c #5A5B9A",
" X c #6C758D",
".X c #0A12DA",
"XX c #2959D6",
"oX c #0C4BFF",
"OX c #1067FF",
"+X c #4B79FD",
"@X c #846FC3",
"#X c #74848C",
"$X c #79868D",
"%X c #788B95",
"&X c #7B909A",
"*X c #7588AB",
"=X c #878686",
"-X c #94908E",
";X c #899496",
":X c #979595",
">X c #9B9E9D",
",X c #AB908A",
"<X c #9EA09F",
"1X c #A8A29C",
"2X c #969CA6",
"3X c #9BA2A1",
"4X c #9AA6B1",
"5X c #A9AAAA",
"6X c #ADAEB2",
"7X c #B7B7B8",
"8X c #CD8E8D",
"9X c #E88F8B",
"0X c #CEBAB0",
"qX c #E9AFA7",
"wX c #A7D1A8",
"eX c #C2C1BF",
"rX c #E7CABB",
"tX c #F3C7B8",
"yX c #F6D5B7",
"uX c #849FC3",
"iX c #AFAED2",
"pX c #9AAEFE",
"aX c #B3CBC5",
"sX c #BBE1E5",
"dX c #C5C5C5",
"fX c #CBCBCB",
"gX c #CACDDB",
"hX c #D5D6D6",
"jX c #F8D4C3",
"kX c #FDDECB",
"lX c #FDE0CD",
"zX c #FDE2D2",
"xX c #FEEBDE",
"cX c #D6D7F2",
"vX c #DAE1E6",
"bX c #E6E7E7",
"nX c #F8F0E9",
"mX c #E7EAF0",
"MX c #EBEEF0",
"NX c #F3F4F4",
"BX c #F6F8F9",
"VX c #FDFFFF",
/* pixels */
"D.l.l.A.U.(.G.b.K.Q.Q.Q.!.R.!.p X.h.8.| w.M.R.C.J.E.S.S.T.).).D.F.F.I.(.(.H.D.K.E.E.D.k.S.T._.`.h.S.K.B.D.h.l.R.R._.R.K.U.T.U.W.",
"l.w.N.D.D.L._.`.R.'.`.!.!.E.B.B.p 8.l.M.X.X.C.L.Y.J.7.h.j.I.I.Z.P.H.H.H.P.D.D.D.E.W.l.h.w.j.(.).8.i } M.l.D.S.Z.T.L.T.L.U.L.L.E.",
"l.8.l.D.D.J.D.W.L.`.!.W.L.Y.h.6.J.<.W.V.X.h.h.g.W.K.l.j.Z.P.D.l.I.P.Z.j.7.Z.H.P.T.H.x _ 7.} G.T.L._ x 8.D.L.L.L.K.L.U.J.T.U.K.K.",
"N.l.l.D.D.K.B.B.D.K.K.C.B.N.N.` g.Y.'.V.( ( l N.E.J.D.D.U.I.D.Z.P.S.f.f.c.F.H.P.I.U.Z.l l 9.P.U.M.l.} w.L.E.D.J.L.U.U.D.L.T.U.J.",
"8.l.N.J.D.M.M.D.D.N.D.B.M.7.] g.B.`.`.L.( ( ` R.).X.k.l.D.J.D.D.D.l.8.7.v.G.S.S.F.^.I.q.f l Z.l.l x q.D.M.D.E.8.L.U.A.g.D.U.K.L.",
"g.j.M.D.D.l.6.l.N.D.J.D.S.8.) B._.E.D.k.8.M.B.R.K.N.g.6.l.D.D.A.l.q.8.6.S.D.Z.b.v.H.^.F.7.*.v.c.<.g.D.D.M.K.8.{ 6.8.h.g.M.K.K.R.",
"D.8.A.S.D.D.h.j.6.6.6.( ( _ D.W.Q.D.{ 8.k.L.Y.6.x J.P.b.D.D.D.D.j.<.U.I.S.S.S.Z.b.Z.G.F.b.v.b.D.P.A...A.D.I.D.J.D.D.j...g.J.E.g.",
"h.k.Z.h.k.D.h.u ` <.k.q.<.D.W.W.L.P.l.Z.A.<.D.g.M.U.A.8.D.D.H.P.Z.b.E.E.E.I.D.Z.b.b.F.F.F.v.b.H.D.S.6.D.D.J.L.R.E.l.N.D.B.J.D.] ",
"j.j.g.g.j.j...| p u ` L.W.`.L.W.| ' 6.N.| t Z.` v.l M.D.D.D.S.P.h.b.k.D.j.q.D.S.Z.b.c.z.f.v.v.Z.H.Z.8.q.A.M.S.l.h.N.D.L.J.l.k.X.",
"] 7.g.k.Z.Z.l.M.U.E.h.{ K.U.L.| q.q.q.] Z.j.8.j.Z.T.D.D.J.H.S.k.g.A.b.).k.} q.k.v.c.y.2.z.b.v.b.F.H.j.7.Z.Z.S.k.g.k.8.8.j.8.8.<.",
"j.<.<.q.D.E.N.K.B.J.8.8.M.D.D.] H.).I.e.q.8.g.7.X D T W 6X6X6X6X6XW 0 V @ 7.x ;.f.q.c.y.c.z.c.v.F.H.j.[ b.q.7.x 8 7.M.l.x 8 8 8 ",
"b.<.6.<.N.W.Q.h.<.M.g.K.W.7.<.<.I.U.Z.q.h.J.  @ > dXhXhXVX7X7X7X7X:XW =X-X:X=X2 H.k.b.c.c.c.v.c.b.F.f.( [ p r v v l l x _ } | ` ",
"<.7.8.j.h.D.E...h.g.q.S.W.x z 6.J.D.f.f.f.- VXVXVXVXVXfXfX0X0XeXdXfXfXmXVXVXVXVXBX;XD.  v.q.c.' v.S.Z._ e } <.v.j.] ( ( M.J.R.L.",
"<.9.<.f.P.I.U.D.( 7.q.N.L.x ;.I.).j.<.D VXVXVXVXVXbXhX6X6XVXVXVXVXVXVXVXVXVXVXVXVXVXVXD . f.v [ j.S.D.k.<.e.b.l.8.b.q.8.h.J.K.g.",
"6.c.f.v.S.E.I.H.S.<.q.T.T.7.0.(.).D fXVXVXVXVXVXVX<X5XVXVXVXVXVXVXVXVXVXVXVXVXVXVXVXVXVXVX@  .j.k.b.Z.b.v.v.` } <.Z.} j.l.j.E.L.",
"b.v z.~.D.A.<.c.(.I.b.b.).v.p c.T hXVXVXVXVXVXVX=XVXVXVXVXVXVXVXVXVXVXVXVXVXVXVXVXVXVXVXVXVX; Z.b.v.c.j.F.b.<.G.[ l S.<.[ l.w.U.",
"} Z.c.x S.D.<.*.;.y.F.H.I.7.6.W hXVXVXVXVXVXVXVXVXVXVXVXVXVXVXVXVXVXVXVXVXVXVXVXVXVXVXVXVXVXVX. F.v.z.1.p ;.i 8 Z.z.( 8.g.8.N.j.",
"<.' b.G.b.<.z J d d 3.9.6.<.9.W vXVXVXVXVXVXVXVXVXVXVXVXVXVXVXVXVXVXVXVXVXVXVXVXVXVXVXVXVXVXVXVXq.z.;.2.&.*.i i u 8 ;.Z.L.D.7.L.",
"p i 7.c.q.;.v H f >.c.q.7.f.0.W vXVXVXVXVXVXVXVXVXVXVXVXVXVXVXVXVXVXVXVXVXVXVXVXVXVXVXVXVXVXVXVXZ ;.[ 3.t.3.' %.v l <.q.M.M.j.M.",
"d ' ;.9.q.9.2.3.y.n.0.0.9.:.D >XfXVXVXVXVXVXVXVXVXVXVXVXVXVXVXVXVXVXVXVXVXVXVXVXVXVXVXVXVXVXVXVXVXW f d v &.H v *.j <.6.8.X.8.( ",
"v z *.2.9.<.2.2.>.t.0.2.;.D <X>X6XvXVXVXVXVXVXVXVXVXVXVXVXVXVXVXVXVXVXVXVXVXVXVXVXVXVXVXVXVXVXVXVXW t.%.=.*.H 7 k j 9.g.8.X.M.x ",
"d *.1.v <.;.;.>.>.%.>.;.&.D >X>X>X7XNXfXVXVXVXVXVXVXVXVXVXVXVXVXVXVXVXVXVXVXVXVXVXVXVXVXVXVXVXVXVXVXVXn.>.%.-.9 =.3.0.7.6.| N.h.",
"z 0.3.1.,.&.*.1.=.*.3.>.@ <X>X>X>X>XhX7XVXVXVXVXVXVXVXVXVXVXVXVXVXVXVXVXfXfX7X7X6X6X6X6X7X7XD D m : : 2.-.y F H k n.0.7.q.g.T.8.",
"H ;.0.' z *.*.>.t.y.q.7.@ >X>X>X>X>X=XVXVXVXVXVXVXVXVXVXVXVXVXVXVXVXD D - - - - ; ; ; ; ; ; + # , , m m t.>.-.7 k t.%.9 9.D.{ V.",
"H =.2.*.&.*.*.&.3.0.0.0.@ >X>X>X>X>X=XVXVXVXVXVXVXVXVXVX6X1 1 < 1 1 , ,                       . - &XaX< ;.*.c %.r F.n.<.6.K.B.B.",
"c =.>.*.3.2.&.*.2.2.&.- <X>X>X>X>X>X=XVXVXVXVXBXBXBX=X=X1                                       # &XaX> &.%.v %.i [ 9.k.` l.J.M.",
"1.H >.y.y.3.3.2.0.9.2.- >X>X>X>X>X>XVXVXVXVXVXm < , # # o                                       % %X%XMX2.1.x.-.z l [ [ ` M.g.M.",
"%.-.%.2.t.0.2.;.9.<.<.- >X>X>X>X>X>XVXVXT U < < , +                                 0X0         . = #XVX=.-.3.b j l } [ g.J.7.J.",
"f =.>.1.2.2.' l [ *.;.- >X>X>X>X>X<XVXVX< < < .                         $.          0XkXA         o #XBX@ J -.v ' q.S.l.8._ <.g.",
"v *.5.2.&.v ' [ ' [ [ # >X>X>XT A A -XMX4X- ; < #                       #.*         9 s.#.        . #XNX# J -.-.*.2.6.h.| x h.w.",
"J *.1.;.&.' ;.G.<.;.<.@ >X>XR :XeXdX=XhXVXT % < %                     6 6 O       R kXkX,X        . #XNX# G H -.;.0.g.l.X.M.N.X.",
"J %.&.,.;.;.0.f.9.7.7.@ <X>X0 MXVXVXNX6XhXVX=X- C             6   6 A ,X0       A zX0X  O p.        #XMX2 G G %.0.c.7.8.K.x u w ",
"1.>.2.2.<.2.2.q.c.f.g.q.>X>XZ hXVXVXVXhX5XVXNX  T             @.  / ,XrX1XR i.qXjXkX                #XMX2 G G K *.9.j.l.l.` C.( ",
">.3.0.9.2.2.;.9.6.q.7.x <X>XZ hX7XhXVXhX5XVXNX  T             - . @ # ,XtXkXkXkXrX  VX= :X@.      @ #XMX2 K K H >.q.v.7.<.l 8.b.",
";.<.2.2.2.2.9.6.:.<.;.a >X3XZ fXT 6XVX7XR VXNX  T         X   NX= i.8X8XqXlXkXkXrX  . # VXs.      $X$XMX2 =.K %.>.q.k.q.j.....u ",
",.,.<.<.2.2.<.:.' q.v.A.8.5XZ o 6XBXVX7XR VXNX  T         a.    + hXVXxXkXkXkXkXjXY M NXVXs.      $X$XMX2 5.c -.;.y.v.7.w.8.[ x ",
";.;.<.2.&.&.<.;.6.6.b.l.7.3XV =X>XhXVXfX-XVXNX  T       $.lX|.&  XmXVXxXkXkXkXkXkXrXa.9XzX$       $X$XMX2 x.J -.>.t.c.7.6.I.D.h.",
",.<.;.;.;.2.9.<.6.;.;.:.<.3XV -X>XhX7XT W bXZ ; T       a.lXlX/.9XyXkXkXkXkXzXnXkXkXtXtXkX      E $X$XMX2 %.=.-.1.0.z.j.7.q.D.6.",
"2.9.<.:.2.<.l ;.:.;.[ ;.6.<.-XS  X>XR T dXhX  n I m     $ zXlXkXkXkXkXkXkXkXzXzXqXkXkXkXkX      #X$XBX- 9 z >.%.*.2.z.D.g.7.I.Z.",
"q.q.9.<.<.f 8 ;.;.} } <.<.<.T 5XR 0 D -XdXT % n I I o       0XzXlXkXkXkXkXkXkXkXqXkXkXkXkX1     S $XaX-X5.-.k 5.*.1.2.j.K.D.:.).",
"[ ) v p 8 u 8 ;.<.2.<.<.;.<.<.Z <X>X>X3X5X  n : S I - .         R lXkXkXkXkXkXkXkXkXkXkXqX-     S $XaX-X1.%.=.>.-.1.;.:.v.P.v.k.",
"x 8 i ' | ' } *.<.9.,.:.<.<.<.Z 3X>X3XaXbX# : : : I m +     L kXkXkXkXkXkXkXkXtXlXkXkXrX#.O     % %XwX  v J -.J -.*.&.) q.U.I.D.",
"[ ' 2.z.9.1.i 8 t *.` <.<.9.:.<.:.>X>XVXVXE ; m n S S %     . o zXkXkXkXkXs.s.9XlXkXrX4.$     . : &XsX%.H J c J %.&.;.9.v.).D.j.",
";.;.2.<.*.&.*._ &.x j v v ' } 9.q.3X>XVXVXVX+ Y M : P n             lXkXkXkXkXkXkXjXr.$       - %XwX= &.=.%.J J J %.<.c.D.).T.<.",
"<.;.} <.;.[ *.2.2.' v t l l _ 7.q.X D VXVXVXVXS Y M < , %         a.a.lXkXkXkXkXkXX           - ;XwX*.c k H -.J H H 2.c.9.6.g...",
"0.;.;.<.;.;.v v j 0.q.c.Z.<.;.6.<.; X L -XVXVX6XI Y  X XP n       @ a.$.$.kXkXn X m m < @   < #X;Xq =.c &.d y =.G c &.2.;.p l | ",
";.<.[ ;.} v z t ;.j l.9.x [ ` 7.q.<.  + & uXVXVXVXcX2X X XC %       $ a.p.p.1 .     1 E *XM   q 3X&.j 3.5.j k J k c H *.<.p 8 u ",
"6.9.' [ [ v k t.f &.v ;._ i z v 9 b.b.  3 . .X.XcXVXVXsX*X;X XS S =   6 6 $ % ; ; - .     ].oXoX.X3.h =.&.=.%.H G k c ' 2.q.t i ",
"f 2.v v ,.' d %.n.c.l :.q.s ;.<.<._ <.' O   3 3 B [.iXVXVXcXMX6XiX2X=X=X].].# . X . XXoXoXoX{.& n.x.5.-.&.' =.k H H c H ;.q.' _ ",
"l v z 9 r v z.2.z.,.D.S.<.a <.b.j.;.<.f.z t #   ~ +.#.].{.@XgXiXpXpXpXpXOXOX].XXXXXX+X}.    $ ! t.*.1.-.v =.%.%.-.%.H c *.9.j.) ",
"7 d v a } ;.*.v <.;._ 7.7.} l e k.u e e z j...b.D   4 +.+.^ N B |.|.+X+X+XXXXX{.[.].N |.yXd.^ &.z ' J G =.-.3.5.-.>.J k %.2.q.) ",
"r &.j v ' v v p x v <.2.7.l z 8 p ` v ,.q.v.S.f.<.f.Z.    $ +.^ ^ d.yXzXlX XB / / / o.! Q   o D b ' %.=.=.t.m.x.z k y g v *.3.;.",
"8 <.' ,.;.d e e u z v ;.8.' *.x z D.g.q.b.x z 7.7.<.:.<.q.7.6.o @ X ~ o.o.o.O.5 5 5       &.%.=.' ' ' *.t.~.~.n.&.j 7 y c %.*.*.",
"t y.q.0.0.c.i 8 p ;.v 2.b.k.;.p _ ' 7.6.7.z p { _ [ } _ l p :.6.<.<.@         2 2 2 ;.*.;.;.;.&.&.[ ;.3.F.~.x.2.t.y.%.H H %.&.' ",
"3.1.b z 2.0.6.i t ) <.;.[ ` } ;.;.t z k.q.v x _ 8.x x l } p t *.7.6.9.9.2.2.2.;.,.,.;.;.;.;.;.;.&.*.;.2.0.<.*.&.v d *.*.) ) %.&.",
"5.u.%.l H t.t.t.7 ) [ l <.f.6.q.] ( p _ ( _ | s 6.' 7.7.8.;.) z 7.j.7.f.f.<.;.;.[ *.&.&.*.;.[ 2.*.*.[ [ ;.;.} *.*.q.^.n.1.' &.*.",
"r g v >.=.v 2.*.v c.x <.z a ;.] x 7.;.a l i e p ( [ 6.Z.f.7.x i t l 8 8 p 9.2.;.;.;.;.*.;.;.;.:.:.;.*.[ ' ' e i ;.,.0.0.2.;.' ' ",
"g d G 1.5.c c c *.t.>.z l [ 6.6.l 8.| <.g.f.3.t ' ' 7.K.E.E.8.u l e x 9.x _ *.7.<.*.*.;.[ ;.;.;.;.[ z z } _ 7.j.<._ z v f ' *.&.",
"k k k J -.%.f >.2.2.' ;.q.2.b q.2.6...x | { v.x t x } h.P.Z.x l l } f.<.q._ _ ;.7.[ *.*.;.;.;.;.[ _ *.*.;.9.H.D._ ` ' p ] z ' &.",
"k H k g G c H v v 2.&.;.z.;.' q.<.;.} { <.` 6.6.a ( } [ :.7.:._ ' c.Z.j.c.} v ;.9.;.;.;.;.&.) ;.<.<.;.;.<.2.} ` z z ) } *.l &.;.",
"J 3.>.F y G -.f i v *.v ' l z ` ;.' l } <.` D.).' ) } [ ' } 9.q.6.v.U.).j.;.[ ;.*.;.;.*.[ &.<.<.;.:.;.[ ;.<.;._ g.q.;.<.q.v [ *.",
"=.-.H r y K -.v *.j v v p i <.6.q.[ 7.[ l s z x ' ' ;.} ' ' <.j.P.G.j.j.;.' ;.;.;.;.;.*.[ [ <.;.*.[ *.[ ;.;.' [ b.P.2.} *.z &.v ",
"y g g 7 r k =.t.m.k t v 0.9.f.0.Z.v } } _ ( ( j e z } } [ [ :.' <.<.} [ ' [ ;.;.[ ' *.*.[ [ ' ' &.*.' &.b ) [ 7.l l s z ' z ' x ",
"=.9 d j -.d 7 7 -.z f z z.q.j.z.k.q.[ ( ` X.<.u <.l ( ] ` [ x 7.[ _ ' _ ` ;.,.[ ;.;.x x [ *.' &.,.[ &.' ,.;.[ [ _ j 7 7 t t ` z "
};
